<svg width="76" height="24" viewBox="0 0 76 24" fill="none" xmlns="http://www.w3.org/2000/svg">
<path fill-rule="evenodd" clip-rule="evenodd" d="M40.1261 5.16413C40.1261 1.94071 37.469 0 34.6454 0H28.8149V14.4762H32.2882V10.3116H34.6371C37.469 10.3199 40.1261 8.37922 40.1261 5.16413ZM32.2966 3.26506H34.6454C34.9055 3.2426 35.1673 3.27545 35.4138 3.36146C35.6602 3.44746 35.8857 3.58467 36.0753 3.76406C36.2649 3.94345 36.4144 4.16096 36.514 4.40227C36.6135 4.64358 36.6608 4.90322 36.6528 5.16413C36.6596 5.42434 36.6114 5.68307 36.5113 5.92338C36.4113 6.16368 36.2616 6.38015 36.0721 6.55863C35.8826 6.73711 35.6576 6.87357 35.4118 6.95908C35.1659 7.0446 34.9048 7.07724 34.6454 7.05487H32.2966V3.26506Z" fill="white"/>
<path d="M72.2588 17.1378C72.1721 17.0796 72.0906 17.025 71.9854 17.025C71.9585 17.0224 71.9314 17.0258 71.906 17.0349C71.8805 17.0441 71.8575 17.0587 71.8383 17.0778C71.8192 17.0969 71.8046 17.12 71.7955 17.1454C71.7863 17.1709 71.7829 17.198 71.7855 17.2249L71.394 17.1416C71.3918 17.0772 71.4026 17.0129 71.426 16.9528C71.4494 16.8927 71.4847 16.838 71.5299 16.792C71.5751 16.746 71.6292 16.7098 71.6889 16.6854C71.7486 16.661 71.8127 16.649 71.8771 16.6502C72.0323 16.6502 72.138 16.7234 72.2368 16.7918C72.3235 16.8519 72.405 16.9084 72.5101 16.9084C72.537 16.911 72.5642 16.9076 72.5896 16.8984C72.615 16.8893 72.6381 16.8746 72.6572 16.8555C72.6763 16.8364 72.691 16.8134 72.7001 16.7879C72.7092 16.7625 72.7126 16.7354 72.7101 16.7085L73.1015 16.7834C73.1038 16.8479 73.0929 16.9121 73.0696 16.9722C73.0462 17.0323 73.0108 17.087 72.9656 17.133C72.9204 17.179 72.8663 17.2153 72.8066 17.2397C72.7469 17.2641 72.6829 17.276 72.6184 17.2749C72.4632 17.2749 72.3576 17.204 72.2588 17.1378Z" fill="white"/>
<path fill-rule="evenodd" clip-rule="evenodd" d="M36.736 22.0142C36.6089 22.013 36.4828 22.0375 36.3654 22.0864C36.248 22.1353 36.1417 22.2074 36.053 22.2985C35.9643 22.3896 35.8949 22.4977 35.8491 22.6163C35.8033 22.7349 35.782 22.8616 35.7865 22.9887C35.7808 23.1204 35.8021 23.252 35.8492 23.3752C35.8962 23.4984 35.968 23.6107 36.0601 23.7051C36.1521 23.7995 36.2626 23.8741 36.3846 23.9242C36.5065 23.9743 36.6375 23.9989 36.7694 23.9965C36.9705 24.0128 37.1711 23.9596 37.3378 23.846C37.5045 23.7323 37.6272 23.565 37.6856 23.3718L37.2441 23.3219C37.1962 23.4049 37.1269 23.4734 37.0433 23.5203C36.9598 23.5672 36.8651 23.5907 36.7694 23.5884C36.7057 23.5953 36.6412 23.5892 36.5799 23.5705C36.5187 23.5518 36.4618 23.5209 36.4128 23.4797C36.3637 23.4384 36.3236 23.3877 36.2947 23.3305C36.2658 23.2733 36.2487 23.2109 36.2446 23.1469H37.6856V23.0303C37.6935 22.9004 37.6749 22.7703 37.6308 22.6478C37.5868 22.5253 37.5182 22.4131 37.4294 22.318C37.3405 22.2229 37.2332 22.147 37.114 22.0947C36.9948 22.0425 36.8662 22.0151 36.736 22.0142ZM36.2446 22.8471C36.2573 22.7285 36.3157 22.6195 36.4074 22.5432C36.4992 22.467 36.6171 22.4296 36.736 22.439C36.8545 22.4317 36.9713 22.4699 37.0626 22.5457C37.1539 22.6215 37.2128 22.7293 37.2275 22.8471H36.2446Z" fill="white"/>
<path fill-rule="evenodd" clip-rule="evenodd" d="M39.2265 17.5997C38.9636 17.5997 38.7115 17.7041 38.5256 17.89C38.3397 18.0759 38.2353 18.328 38.2353 18.5909C38.2353 18.8538 38.3397 19.1059 38.5256 19.2918C38.7115 19.4776 38.9636 19.5821 39.2265 19.5821C39.359 19.5866 39.4911 19.5642 39.6148 19.5163C39.7385 19.4684 39.8512 19.396 39.9461 19.3034C40.0411 19.2107 40.1163 19.0999 40.1672 18.9774C40.2182 18.855 40.2439 18.7235 40.2427 18.5909C40.2427 18.4586 40.2163 18.3276 40.1649 18.2057C40.1135 18.0838 40.0383 17.9734 39.9436 17.881C39.8489 17.7887 39.7366 17.7162 39.6135 17.6679C39.4903 17.6195 39.3587 17.5964 39.2265 17.5997ZM39.2265 19.1489C39.1481 19.1586 39.0685 19.1514 38.993 19.128C38.9175 19.1046 38.8479 19.0654 38.7887 19.013C38.7295 18.9607 38.6821 18.8963 38.6496 18.8243C38.6172 18.7522 38.6004 18.6741 38.6004 18.595C38.6004 18.516 38.6172 18.4379 38.6496 18.3658C38.6821 18.2938 38.7295 18.2294 38.7887 18.1771C38.8479 18.1247 38.9175 18.0855 38.993 18.0621C39.0685 18.0386 39.1481 18.0315 39.2265 18.0412C39.3617 18.0578 39.4862 18.1233 39.5764 18.2253C39.6667 18.3273 39.7165 18.4588 39.7165 18.595C39.7165 18.7313 39.6667 18.8628 39.5764 18.9648C39.4862 19.0668 39.3617 19.1323 39.2265 19.1489Z" fill="white"/>
<path d="M39.2892 22.8264L39.2363 22.809C38.924 22.7061 38.81 22.6685 38.81 22.5639C38.81 22.4473 38.9516 22.3973 39.0682 22.3973C39.1848 22.3973 39.3431 22.4556 39.3598 22.5972H39.8179C39.8179 22.2807 39.5263 22.0142 39.0516 22.0142C38.8861 21.9953 38.7198 22.0425 38.5889 22.1454C38.4579 22.2483 38.3728 22.3987 38.3519 22.5639C38.3519 22.8721 38.5935 23.0303 38.9183 23.1303L38.9955 23.1539C39.2758 23.2391 39.4514 23.2925 39.4514 23.4301C39.4514 23.5801 39.3098 23.6051 39.1515 23.6051C38.9933 23.6051 38.7767 23.5134 38.7517 23.3802H38.2853C38.2853 23.7883 38.6601 23.9965 39.1182 23.9965C39.5763 23.9965 39.9012 23.7966 39.9012 23.4468C39.9012 23.097 39.7679 22.9887 39.3514 22.8471L39.2892 22.8264Z" fill="white"/>
<path d="M31.6219 16.7251H32.0883V19.5487H31.6219V16.7251Z" fill="white"/>
<path fill-rule="evenodd" clip-rule="evenodd" d="M30.0727 18.6992H29.5646V19.5487H29.0981V16.875H30.0727C30.1998 16.8629 30.328 16.8774 30.4491 16.9177C30.5703 16.958 30.6817 17.0232 30.7762 17.1091C30.8706 17.195 30.9461 17.2996 30.9978 17.4164C31.0494 17.5332 31.0761 17.6594 31.0761 17.7871C31.0761 17.9148 31.0494 18.041 30.9978 18.1578C30.9461 18.2746 30.8706 18.3792 30.7762 18.4651C30.6817 18.551 30.5703 18.6162 30.4491 18.6565C30.328 18.6968 30.1998 18.7113 30.0727 18.6992ZM30.0727 17.3082H29.5646V18.2577H30.0727C30.1986 18.2577 30.3193 18.2077 30.4084 18.1186C30.4974 18.0296 30.5474 17.9088 30.5474 17.7829C30.5474 17.657 30.4974 17.5363 30.4084 17.4472C30.3193 17.3582 30.1986 17.3082 30.0727 17.3082Z" fill="white"/>
<path fill-rule="evenodd" clip-rule="evenodd" d="M29.7494 22.0839C29.8678 22.0356 29.9948 22.0118 30.1226 22.0142C30.2528 22.0151 30.3814 22.0425 30.5006 22.0947C30.6198 22.147 30.7271 22.223 30.8159 22.3181C30.9048 22.4131 30.9734 22.5253 31.0174 22.6478C31.0615 22.7703 31.0801 22.9004 31.0722 23.0304V23.147H29.6312C29.6341 23.2113 29.6504 23.2744 29.6789 23.3321C29.7074 23.3899 29.7476 23.4412 29.7969 23.4826C29.8462 23.5241 29.9035 23.5549 29.9653 23.5731C30.0271 23.5913 30.092 23.5965 30.1559 23.5884C30.2516 23.5899 30.3459 23.566 30.4293 23.5192C30.5127 23.4723 30.5822 23.4043 30.6307 23.3219L31.0222 23.3719C30.975 23.5551 30.8668 23.7168 30.7154 23.8304C30.564 23.9439 30.3784 24.0025 30.1893 23.9965C30.054 24.0049 29.9185 23.9846 29.7915 23.9371C29.6646 23.8897 29.549 23.816 29.4524 23.7209C29.3558 23.6259 29.2802 23.5116 29.2307 23.3854C29.1811 23.2593 29.1587 23.1241 29.1648 22.9887C29.1602 22.8609 29.1818 22.7335 29.2281 22.6144C29.2744 22.4952 29.3445 22.3867 29.4341 22.2955C29.5238 22.2043 29.631 22.1323 29.7494 22.0839ZM29.6809 22.6778C29.6533 22.7304 29.6364 22.7879 29.6312 22.8471H30.6141C30.5994 22.7293 30.5405 22.6215 30.4492 22.5457C30.3579 22.4699 30.2411 22.4317 30.1226 22.439C30.0635 22.4332 30.0039 22.4393 29.9471 22.4567C29.8903 22.4742 29.8376 22.5027 29.7919 22.5406C29.7462 22.5786 29.7085 22.6252 29.6809 22.6778Z" fill="white"/>
<path d="M36.1554 18.3817C36.1296 18.4483 36.1175 18.5195 36.1197 18.5909L36.1447 19.5321H35.6866V17.6247H36.1197V17.9079C36.2115 17.8088 36.3222 17.7291 36.4451 17.6733C36.5681 17.6175 36.701 17.5868 36.836 17.583C37.2941 17.583 37.5357 17.8995 37.5357 18.4159V19.5487H37.0692V18.6325C37.0692 18.1911 36.911 18.0411 36.6528 18.0411C36.5813 18.0411 36.5106 18.0554 36.4448 18.0832C36.3791 18.1111 36.3195 18.1518 36.2698 18.2031C36.2201 18.2544 36.1812 18.3151 36.1554 18.3817Z" fill="white"/>
<path d="M40.5842 22.0475H41.0506V23.9549H40.5842V22.0475Z" fill="white"/>
<path fill-rule="evenodd" clip-rule="evenodd" d="M35.1196 21.8453C35.1663 21.9596 35.1892 22.0823 35.1868 22.2058C35.1993 22.3781 35.1579 22.55 35.0684 22.6977C34.9789 22.8455 34.8456 22.9617 34.6871 23.0304L35.2534 23.9549H34.7287L34.2123 23.122H33.7375V23.9549H33.2711V21.2812H34.2456C34.369 21.2767 34.4921 21.2973 34.6072 21.342C34.7224 21.3866 34.8272 21.4543 34.9153 21.5408C35.0034 21.6273 35.0729 21.731 35.1196 21.8453ZM33.7042 22.6805H34.2456C34.3138 22.6895 34.3831 22.6839 34.449 22.6639C34.5148 22.644 34.5756 22.6102 34.6273 22.5649C34.6791 22.5195 34.7205 22.4637 34.7489 22.401C34.7773 22.3384 34.792 22.2704 34.792 22.2016C34.792 22.1328 34.7773 22.0648 34.7489 22.0022C34.7205 21.9395 34.6791 21.8836 34.6273 21.8383C34.5756 21.793 34.5148 21.7592 34.449 21.7392C34.3831 21.7193 34.3138 21.7136 34.2456 21.7227H33.7042V22.6805Z" fill="white"/>
<path fill-rule="evenodd" clip-rule="evenodd" d="M34.4122 19.5154V19.1572C34.353 19.2876 34.2566 19.3975 34.135 19.4731C34.0135 19.5487 33.8723 19.5866 33.7292 19.582C33.4663 19.582 33.2142 19.4776 33.0283 19.2917C32.8424 19.1058 32.738 18.8537 32.738 18.5909C32.738 18.328 32.8424 18.0759 33.0283 17.89C33.2142 17.7041 33.4663 17.5997 33.7292 17.5997C33.8687 17.5922 34.0073 17.6251 34.1285 17.6946C34.2497 17.764 34.3482 17.867 34.4122 17.9911V17.6413H34.8536V19.5154H34.4122ZM33.2895 18.3432C33.2608 18.411 33.2461 18.4839 33.2461 18.5575V18.5909C33.2547 18.7345 33.3184 18.8692 33.4239 18.967C33.5294 19.0648 33.6686 19.118 33.8125 19.1156C33.9477 19.099 34.0721 19.0335 34.1624 18.9315C34.2527 18.8294 34.3025 18.6979 34.3025 18.5617C34.3025 18.4255 34.2527 18.294 34.1624 18.1919C34.0721 18.0899 33.9477 18.0244 33.8125 18.0078C33.7389 18.0056 33.6656 18.0181 33.597 18.0448C33.5284 18.0714 33.4658 18.1115 33.4129 18.1628C33.3601 18.2141 33.3181 18.2754 33.2895 18.3432Z" fill="white"/>
<path d="M43.1287 21.377C43.174 21.3317 43.2354 21.3062 43.2995 21.3062C43.3621 21.3084 43.4214 21.3348 43.4649 21.3798C43.5085 21.4249 43.5328 21.4851 43.5327 21.5478C43.5223 21.6031 43.4929 21.6531 43.4495 21.689C43.4062 21.725 43.3517 21.7446 43.2953 21.7446C43.239 21.7446 43.1845 21.725 43.1411 21.689C43.0978 21.6531 43.0684 21.6031 43.058 21.5478C43.058 21.4837 43.0834 21.4223 43.1287 21.377Z" fill="white"/>
<path fill-rule="evenodd" clip-rule="evenodd" d="M60.1675 17.696C60.2885 17.6266 60.4267 17.5932 60.566 17.5997L60.591 17.5664C60.8539 17.5664 61.106 17.6708 61.2919 17.8567C61.4777 18.0426 61.5822 18.2947 61.5822 18.5576C61.5822 18.8204 61.4777 19.0726 61.2919 19.2584C61.106 19.4443 60.8539 19.5487 60.591 19.5487C60.4517 19.5552 60.3134 19.5218 60.1925 19.4525C60.0715 19.3832 59.9728 19.2807 59.908 19.1573V20.415H59.4416V17.6414H59.883V17.9912C59.9478 17.8677 60.0465 17.7653 60.1675 17.696ZM60.181 19.0632C60.2728 19.1246 60.3807 19.1573 60.491 19.1573C60.5649 19.1596 60.6385 19.1467 60.7073 19.1195C60.7761 19.0923 60.8385 19.0513 60.8908 18.999C60.9431 18.9467 60.9841 18.8842 61.0113 18.8155C61.0386 18.7467 61.0514 18.6731 61.0491 18.5992C61.0491 18.4888 61.0164 18.3809 60.955 18.2892C60.8937 18.1974 60.8066 18.1259 60.7046 18.0836C60.6026 18.0414 60.4904 18.0303 60.3822 18.0519C60.2739 18.0734 60.1745 18.1266 60.0964 18.2046C60.0184 18.2827 59.9652 18.3821 59.9437 18.4903C59.9222 18.5986 59.9332 18.7108 59.9755 18.8128C60.0177 18.9147 60.0892 19.0019 60.181 19.0632Z" fill="white"/>
<path fill-rule="evenodd" clip-rule="evenodd" d="M62.6978 17.6701C62.8168 17.6213 62.9445 17.5973 63.0731 17.5997C63.2032 17.6006 63.3318 17.628 63.451 17.6802C63.5702 17.7325 63.6775 17.8085 63.7664 17.9036C63.8553 17.9987 63.9238 18.1109 63.9679 18.2333C64.0119 18.3558 64.0305 18.486 64.0226 18.6159V18.7408H62.5817C62.5857 18.8044 62.6027 18.8666 62.6317 18.9234C62.6607 18.9802 62.7011 19.0304 62.7502 19.071C62.7994 19.1116 62.8564 19.1417 62.9177 19.1594C62.9789 19.1771 63.0432 19.182 63.1064 19.1739C63.2004 19.1783 63.2938 19.1565 63.3762 19.1109C63.4586 19.0653 63.5266 18.9977 63.5728 18.9157L63.981 18.9574C63.9322 19.1495 63.8165 19.318 63.6547 19.4325C63.4929 19.547 63.2955 19.6 63.0981 19.5821C62.9669 19.5844 62.8367 19.56 62.7153 19.5104C62.5939 19.4608 62.4839 19.387 62.3919 19.2935C62.3 19.1999 62.228 19.0887 62.1804 18.9665C62.1329 18.8443 62.1107 18.7136 62.1152 18.5826C62.1095 18.4541 62.1302 18.3258 62.176 18.2056C62.2218 18.0855 62.2917 17.9759 62.3815 17.8838C62.4712 17.7917 62.5789 17.719 62.6978 17.6701ZM62.745 18.1315C62.653 18.2064 62.5943 18.3146 62.5817 18.4326H63.5645C63.548 18.3164 63.4882 18.2106 63.3971 18.1365C63.306 18.0624 63.1903 18.0254 63.0731 18.0328C62.955 18.0212 62.8371 18.0566 62.745 18.1315Z" fill="white"/>
<path d="M58.1584 18.7813C58.179 18.7115 58.1848 18.6381 58.1755 18.5659V17.6413H58.642V19.5654H58.2088V19.2822C58.1166 19.3801 58.0057 19.4585 57.8827 19.5129C57.7597 19.5672 57.627 19.5964 57.4925 19.5987C57.0344 19.5987 56.7929 19.2905 56.7929 18.7658V17.6413H57.251V18.5575C57.251 19.0073 57.4176 19.1572 57.6758 19.1572C57.7485 19.1544 57.8199 19.1364 57.8853 19.1044C57.9508 19.0725 58.0089 19.0272 58.0559 18.9716C58.1029 18.916 58.1378 18.8512 58.1584 18.7813Z" fill="white"/>
<path d="M54.5777 18.9703C54.5301 18.8496 54.5073 18.7206 54.5107 18.5909C54.5084 18.4615 54.532 18.333 54.58 18.2128C54.628 18.0927 54.6994 17.9833 54.7901 17.891C54.8808 17.7987 54.989 17.7255 55.1084 17.6754C55.2277 17.6254 55.3558 17.5997 55.4852 17.5997C55.6923 17.5936 55.8942 17.6648 56.0516 17.7996V18.2411C55.9884 18.1773 55.9131 18.1267 55.8302 18.0924C55.7472 18.0581 55.6582 18.0407 55.5685 18.0411C55.49 18.0315 55.4104 18.0386 55.335 18.0621C55.2595 18.0855 55.1898 18.1247 55.1306 18.1771C55.0714 18.2294 55.0241 18.2938 54.9916 18.3658C54.9591 18.4379 54.9424 18.516 54.9424 18.595C54.9424 18.6741 54.9591 18.7522 54.9916 18.8243C55.0241 18.8963 55.0714 18.9607 55.1306 19.013C55.1898 19.0654 55.2595 19.1046 55.335 19.128C55.4104 19.1514 55.49 19.1586 55.5685 19.1489C55.6591 19.1498 55.7488 19.1318 55.832 19.0959C55.9152 19.06 55.99 19.0072 56.0516 18.9407V19.3905C55.893 19.5222 55.6912 19.5905 55.4852 19.5821C55.3555 19.5832 55.2268 19.5583 55.107 19.5086C54.9871 19.459 54.8785 19.3858 54.7876 19.2933C54.6966 19.2008 54.6252 19.0909 54.5777 18.9703Z" fill="white"/>
<path d="M65.1721 17.6413V17.8496C65.2186 17.7829 65.2794 17.7275 65.3499 17.6871C65.4205 17.6468 65.4991 17.6226 65.5802 17.6164C65.6657 17.6131 65.7492 17.6429 65.8134 17.6996L65.7468 18.1078C65.6881 18.0753 65.6222 18.0581 65.5552 18.0578C65.3053 18.0578 65.1721 18.316 65.1721 18.7158V19.5487H64.7306V17.6413H65.1721Z" fill="white"/>
<path fill-rule="evenodd" clip-rule="evenodd" d="M54.1505 22.1118C54.2712 22.181 54.3701 22.2829 54.4357 22.4057V22.0475H54.8771V23.9549H54.4357V23.6051C54.3701 23.7279 54.2712 23.8297 54.1505 23.899C54.0297 23.9682 53.8918 24.002 53.7527 23.9965C53.4898 23.9965 53.2377 23.8921 53.0518 23.7062C52.8659 23.5204 52.7615 23.2683 52.7615 23.0054C52.7615 22.7425 52.8659 22.4904 53.0518 22.3045C53.2377 22.1186 53.4898 22.0142 53.7527 22.0142C53.8918 22.0087 54.0297 22.0425 54.1505 22.1118ZM53.6147 23.5157C53.6824 23.5428 53.7548 23.5562 53.8277 23.5551C53.9005 23.5562 53.9729 23.5428 54.0406 23.5157C54.1082 23.4885 54.1698 23.4482 54.2218 23.3971C54.2737 23.3459 54.3149 23.2849 54.3431 23.2177C54.3712 23.1504 54.3857 23.0783 54.3857 23.0054C54.3857 22.8574 54.3269 22.7154 54.2223 22.6108C54.1176 22.5061 53.9757 22.4473 53.8277 22.4473C53.6796 22.4473 53.5377 22.5061 53.433 22.6108C53.3284 22.7154 53.2696 22.8574 53.2696 23.0054C53.2696 23.0783 53.2841 23.1504 53.3122 23.2177C53.3404 23.2849 53.3816 23.3459 53.4335 23.3971C53.4855 23.4482 53.5471 23.4885 53.6147 23.5157Z" fill="white"/>
<path d="M69.24 19.2179C69.0985 19.04 69.0237 18.8181 69.0285 18.5908C69.0296 18.4611 69.0564 18.3328 69.1073 18.2134C69.1582 18.094 69.2323 17.9859 69.3252 17.8953C69.4182 17.8047 69.5281 17.7334 69.6487 17.6855C69.7694 17.6376 69.8983 17.6141 70.0281 17.6163C70.2323 17.6123 70.4309 17.6834 70.5861 17.8162V18.2577C70.5229 18.1939 70.4477 18.1434 70.3647 18.109C70.2818 18.0747 70.1928 18.0573 70.103 18.0578C70.0246 18.0481 69.945 18.0553 69.8695 18.0787C69.794 18.1021 69.7244 18.1413 69.6652 18.1937C69.606 18.2461 69.5586 18.3104 69.5262 18.3825C69.4937 18.4545 69.4769 18.5326 69.4769 18.6117C69.4769 18.6907 69.4937 18.7688 69.5262 18.8409C69.5586 18.9129 69.606 18.9773 69.6652 19.0296C69.7244 19.082 69.794 19.1212 69.8695 19.1446C69.945 19.1681 70.0246 19.1752 70.103 19.1656C70.1936 19.1665 70.2834 19.1484 70.3666 19.1125C70.4498 19.0767 70.5246 19.0238 70.5861 18.9573V19.4071C70.4564 19.5161 70.2966 19.5829 70.128 19.5987L70.0447 19.7486C70.2779 19.7486 70.4279 19.8319 70.4279 20.0151C70.4279 20.365 69.7865 20.365 69.5949 20.365L69.6782 20.1484C69.9364 20.1484 70.153 20.1318 70.153 20.0235C70.153 19.9152 70.053 19.9152 69.9281 19.9152H69.6616L69.8032 19.5654C69.5806 19.5188 69.3814 19.3959 69.24 19.2179Z" fill="white"/>
<path fill-rule="evenodd" clip-rule="evenodd" d="M74.283 17.89C74.4689 17.7041 74.721 17.5997 74.9839 17.5997C75.1162 17.5964 75.2477 17.6195 75.3709 17.6679C75.494 17.7162 75.6063 17.7887 75.701 17.881C75.7957 17.9734 75.8709 18.0838 75.9223 18.2057C75.9737 18.3276 76.0001 18.4586 76.0001 18.5909C76.0013 18.7235 75.9756 18.855 75.9247 18.9774C75.8737 19.0999 75.7985 19.2107 75.7035 19.3034C75.6086 19.396 75.4959 19.4684 75.3722 19.5163C75.2485 19.5642 75.1165 19.5866 74.9839 19.5821C74.721 19.5821 74.4689 19.4776 74.283 19.2918C74.0971 19.1059 73.9927 18.8538 73.9927 18.5909C73.9927 18.328 74.0971 18.0759 74.283 17.89ZM74.7678 19.1089C74.8364 19.1364 74.9099 19.15 74.9839 19.1489V19.1573C75.0575 19.1573 75.1304 19.1426 75.1982 19.1139C75.266 19.0852 75.3274 19.0432 75.3786 18.9904C75.4299 18.9376 75.47 18.875 75.4967 18.8064C75.5233 18.7377 75.5359 18.6645 75.5336 18.5909C75.5348 18.5184 75.5213 18.4464 75.4941 18.3792C75.4668 18.312 75.4264 18.2509 75.3751 18.1997C75.3239 18.1484 75.2628 18.1079 75.1956 18.0807C75.1284 18.0535 75.0564 18.04 74.9839 18.0412C74.9103 18.0389 74.837 18.0515 74.7684 18.0781C74.6998 18.1047 74.6372 18.1449 74.5844 18.1962C74.5315 18.2474 74.4896 18.3088 74.4609 18.3766C74.4322 18.4444 74.4175 18.5173 74.4175 18.5909C74.4175 18.6649 74.4322 18.7381 74.4608 18.8064C74.4893 18.8746 74.5312 18.9365 74.5839 18.9885C74.6366 19.0404 74.6991 19.0813 74.7678 19.1089Z" fill="white"/>
<path fill-rule="evenodd" clip-rule="evenodd" d="M72.5513 17.6946C72.6724 17.764 72.771 17.867 72.835 17.9911V17.6413H73.2764V19.5154H72.835V19.1572C72.7758 19.2876 72.6794 19.3975 72.5578 19.4731C72.4363 19.5487 72.295 19.5866 72.152 19.582C71.8891 19.582 71.637 19.4776 71.4511 19.2917C71.2652 19.1058 71.1608 18.8537 71.1608 18.5909C71.1608 18.328 71.2652 18.0759 71.4511 17.89C71.637 17.7041 71.8891 17.5997 72.152 17.5997C72.2914 17.5922 72.4301 17.6251 72.5513 17.6946ZM72.0191 19.1172C72.0878 19.1447 72.1613 19.1583 72.2353 19.1572C72.3476 19.1572 72.4575 19.1238 72.5508 19.0612C72.6441 18.9986 72.7167 18.9096 72.7593 18.8056C72.8019 18.7017 72.8126 18.5873 72.7901 18.4773C72.7675 18.3672 72.7128 18.2663 72.6327 18.1874C72.5527 18.1085 72.451 18.0553 72.3406 18.0343C72.2302 18.0134 72.116 18.0259 72.0127 18.07C71.9094 18.1142 71.8215 18.188 71.7603 18.2823C71.699 18.3765 71.6672 18.4868 71.6689 18.5992C71.6689 18.6732 71.6836 18.7464 71.7121 18.8147C71.7407 18.8829 71.7826 18.9448 71.8353 18.9968C71.888 19.0487 71.9505 19.0896 72.0191 19.1172Z" fill="white"/>
<path fill-rule="evenodd" clip-rule="evenodd" d="M67.6272 17.6973C67.748 17.7665 67.8468 17.8684 67.9124 17.9912V17.6413H68.3539V19.5487H67.9124V19.1906C67.8484 19.3147 67.7499 19.4177 67.6287 19.4872C67.5075 19.5566 67.3689 19.5896 67.2294 19.5821C66.9665 19.5821 66.7144 19.4776 66.5285 19.2918C66.3427 19.1059 66.2382 18.8538 66.2382 18.5909C66.2382 18.328 66.3427 18.0759 66.5285 17.89C66.7144 17.7041 66.9665 17.5997 67.2294 17.5997C67.3685 17.5942 67.5064 17.6281 67.6272 17.6973ZM67.0709 19.1363C67.1463 19.1598 67.2259 19.1669 67.3044 19.1573C67.378 19.1584 67.451 19.1447 67.5193 19.1171C67.5875 19.0894 67.6494 19.0484 67.7015 18.9963C67.7535 18.9443 67.7946 18.8823 67.8223 18.8141C67.8499 18.7459 67.8636 18.6728 67.8624 18.5992C67.8636 18.526 67.8499 18.4533 67.8222 18.3855C67.7944 18.3178 67.7532 18.2563 67.701 18.2049C67.6489 18.1535 67.5868 18.1133 67.5187 18.0865C67.4505 18.0598 67.3776 18.0472 67.3044 18.0495C67.2259 18.0398 67.1463 18.047 67.0709 18.0704C66.9954 18.0938 66.9258 18.133 66.8666 18.1854C66.8074 18.2378 66.76 18.3021 66.7275 18.3742C66.6951 18.4462 66.6783 18.5244 66.6783 18.6034C66.6783 18.6824 66.6951 18.7605 66.7275 18.8326C66.76 18.9047 66.8074 18.969 66.8666 19.0214C66.9258 19.0737 66.9954 19.1129 67.0709 19.1363Z" fill="white"/>
<path fill-rule="evenodd" clip-rule="evenodd" d="M53.4195 18.9157L53.8276 18.9574C53.7789 19.1495 53.6632 19.318 53.5014 19.4325C53.3396 19.547 53.1422 19.6 52.9448 19.5821C52.8136 19.5844 52.6834 19.56 52.562 19.5104C52.4406 19.4608 52.3305 19.387 52.2386 19.2935C52.1466 19.1999 52.0747 19.0887 52.0271 18.9665C51.9795 18.8443 51.9574 18.7136 51.9619 18.5826C51.9562 18.4541 51.9769 18.3258 52.0227 18.2056C52.0684 18.0855 52.1384 17.9759 52.2281 17.8838C52.3179 17.7917 52.4256 17.719 52.5445 17.6701C52.6635 17.6213 52.7912 17.5973 52.9198 17.5997C53.0499 17.6006 53.1785 17.628 53.2977 17.6802C53.4169 17.7325 53.5242 17.8085 53.6131 17.9036C53.7019 17.9987 53.7705 18.1109 53.8145 18.2333C53.8586 18.3558 53.8772 18.486 53.8693 18.6159V18.7408H52.4283C52.4324 18.8044 52.4494 18.8666 52.4784 18.9234C52.5074 18.9802 52.5477 19.0304 52.5969 19.071C52.6461 19.1116 52.7031 19.1417 52.7643 19.1594C52.8256 19.1771 52.8898 19.182 52.9531 19.1739C53.0471 19.1783 53.1405 19.1565 53.2229 19.1109C53.3052 19.0653 53.3733 18.9977 53.4195 18.9157ZM53.2457 18.1174C53.1542 18.0429 53.0374 18.0067 52.9198 18.0162C52.8017 18.0045 52.6838 18.04 52.5917 18.1149C52.4997 18.1898 52.4409 18.298 52.4283 18.416H53.4112C53.3966 18.2989 53.3373 18.1919 53.2457 18.1174Z" fill="white"/>
<path fill-rule="evenodd" clip-rule="evenodd" d="M60.3245 0C63.1397 0 65.7968 1.94071 65.7968 5.16413C65.8145 6.07369 65.5793 6.97031 65.1176 7.75413C64.6558 8.53796 63.9855 9.17822 63.1814 9.60362L66.005 14.4762H62.0986L59.6831 10.3116H57.9673V14.4762H54.494V0H60.3245ZM57.9673 7.05487H60.3245C60.5834 7.07734 60.8442 7.04471 61.0896 6.95913C61.3351 6.87354 61.5596 6.73695 61.7485 6.55833C61.9373 6.37971 62.0862 6.16312 62.1853 5.92282C62.2844 5.68251 62.3315 5.42394 62.3235 5.16413C62.3314 4.90399 62.2843 4.64511 62.1852 4.40442C62.0862 4.16373 61.9375 3.94666 61.7488 3.76741C61.5601 3.58815 61.3357 3.45075 61.0902 3.36418C60.8448 3.27762 60.5839 3.24384 60.3245 3.26506H57.9673V7.05487Z" fill="white"/>
<path d="M43.0663 22.0475H43.5327V23.9549H43.0663V22.0475Z" fill="white"/>
<path d="M45.2069 21.3228L44.9987 21.6643H44.5822L45.032 21.0646H45.3818L45.8316 21.6643H45.4234L45.2069 21.3228Z" fill="white"/>
<path fill-rule="evenodd" clip-rule="evenodd" d="M44.8087 22.084C44.9271 22.0356 45.054 22.0119 45.1819 22.0142C45.3141 22.0117 45.4455 22.0365 45.5676 22.0872C45.6898 22.138 45.8001 22.2134 45.8917 22.3089C45.9832 22.4044 46.054 22.5177 46.0996 22.6419C46.1451 22.7661 46.1645 22.8984 46.1564 23.0304V23.147H44.7155C44.7184 23.2113 44.7346 23.2744 44.7631 23.3322C44.7917 23.3899 44.8318 23.4412 44.8811 23.4826C44.9304 23.5241 44.9878 23.5549 45.0496 23.5731C45.1114 23.5913 45.1763 23.5965 45.2402 23.5884C45.3349 23.5911 45.4285 23.5676 45.5108 23.5206C45.5931 23.4736 45.6608 23.4048 45.7066 23.3219L46.0898 23.3719C46.041 23.564 45.9254 23.7325 45.7635 23.847C45.6017 23.9615 45.4043 24.0145 45.2069 23.9966C45.075 23.999 44.9441 23.9743 44.8221 23.9242C44.7001 23.8741 44.5897 23.7995 44.4976 23.7051C44.4055 23.6107 44.3337 23.4984 44.2867 23.3752C44.2397 23.252 44.2183 23.1205 44.224 22.9887C44.2195 22.8609 44.241 22.7336 44.2873 22.6144C44.3336 22.4952 44.4038 22.3867 44.4934 22.2955C44.583 22.2043 44.6903 22.1323 44.8087 22.084ZM44.7402 22.6778C44.7126 22.7304 44.6957 22.788 44.6905 22.8471H45.6733C45.6587 22.7293 45.5997 22.6216 45.5084 22.5457C45.4171 22.4699 45.3004 22.4317 45.1819 22.439C45.1228 22.4333 45.0631 22.4393 45.0063 22.4567C44.9496 22.4742 44.8968 22.5027 44.8511 22.5407C44.8055 22.5786 44.7677 22.6252 44.7402 22.6778Z" fill="white"/>
<path fill-rule="evenodd" clip-rule="evenodd" d="M46.8477 18.9157L47.2142 18.9574C47.1591 19.1377 47.0477 19.2956 46.8963 19.408C46.7449 19.5204 46.5615 19.5814 46.373 19.5821C46.2412 19.5856 46.11 19.562 45.9876 19.5129C45.8652 19.4638 45.7542 19.3902 45.6614 19.2965C45.5685 19.2029 45.4958 19.0913 45.4477 18.9685C45.3996 18.8457 45.3772 18.7143 45.3818 18.5826C45.3761 18.4541 45.3968 18.3258 45.4426 18.2056C45.4883 18.0855 45.5583 17.9759 45.648 17.8838C45.7378 17.7917 45.8455 17.719 45.9644 17.6701C46.0834 17.6213 46.2111 17.5973 46.3397 17.5997C46.4705 17.5995 46.6 17.626 46.7202 17.6778C46.8404 17.7295 46.9487 17.8053 47.0385 17.9005C47.1282 17.9958 47.1975 18.1084 47.2421 18.2314C47.2866 18.3544 47.3055 18.4853 47.2975 18.6159V18.7408H45.8482C45.8534 18.804 45.8712 18.8656 45.9006 18.9218C45.93 18.978 45.9703 19.0278 46.0192 19.0681C46.0681 19.1085 46.1246 19.1387 46.1854 19.1568C46.2461 19.175 46.3099 19.1808 46.373 19.1739C46.4681 19.178 46.5625 19.1561 46.6462 19.1106C46.7298 19.0652 46.7995 18.9978 46.8477 18.9157ZM46.624 18.1174C46.5324 18.0429 46.4157 18.0067 46.298 18.0162C46.1799 18.0045 46.062 18.04 45.97 18.1149C45.8779 18.1898 45.8192 18.298 45.8066 18.416H46.7894C46.7748 18.2989 46.7155 18.1919 46.624 18.1174Z" fill="white"/>
<path fill-rule="evenodd" clip-rule="evenodd" d="M44.1407 16.7251H44.6072L44.5822 19.5487H44.1407V19.1906C44.0767 19.3147 43.9782 19.4177 43.857 19.4872C43.7359 19.5566 43.5972 19.5896 43.4577 19.5821C43.1949 19.5821 42.9427 19.4776 42.7569 19.2918C42.571 19.1059 42.4666 18.8538 42.4666 18.5909C42.4666 18.328 42.571 18.0759 42.7569 17.89C42.9427 17.7041 43.1949 17.5997 43.4577 17.5997C43.5969 17.5942 43.7347 17.6281 43.8555 17.6973C43.9763 17.7665 44.0751 17.8684 44.1407 17.9912V16.7251ZM43.2825 19.1363C43.358 19.1598 43.4376 19.1669 43.516 19.1573C43.5896 19.1584 43.6627 19.1447 43.7309 19.1171C43.7991 19.0894 43.8611 19.0484 43.9132 18.9963C43.9652 18.9443 44.0063 18.8823 44.0339 18.8141C44.0616 18.7459 44.0752 18.6728 44.0741 18.5992C44.0753 18.526 44.0616 18.4533 44.0338 18.3855C44.0061 18.3178 43.9649 18.2563 43.9127 18.2049C43.8605 18.1535 43.7985 18.1133 43.7303 18.0865C43.6621 18.0598 43.5892 18.0472 43.516 18.0495C43.4376 18.0398 43.358 18.047 43.2825 18.0704C43.2071 18.0938 43.1374 18.133 43.0782 18.1854C43.019 18.2378 42.9716 18.3021 42.9392 18.3742C42.9067 18.4462 42.8899 18.5243 42.8899 18.6034C42.8899 18.6824 42.9067 18.7605 42.9392 18.8326C42.9716 18.9046 43.019 18.969 43.0782 19.0213C43.1374 19.0737 43.2071 19.1129 43.2825 19.1363Z" fill="white"/>
<path d="M51.6745 21.377C51.7198 21.3317 51.7812 21.3062 51.8453 21.3062C51.8766 21.3062 51.9076 21.3125 51.9365 21.3247C51.9654 21.337 51.9914 21.3549 52.0132 21.3774C52.035 21.4 52.052 21.4267 52.0632 21.456C52.0744 21.4852 52.0796 21.5164 52.0785 21.5478C52.0797 21.5787 52.0744 21.6096 52.0631 21.6384C52.0518 21.6672 52.0347 21.6934 52.0128 21.7153C51.9909 21.7372 51.9647 21.7543 51.9359 21.7656C51.9071 21.7769 51.8762 21.7822 51.8453 21.781C51.814 21.7821 51.7827 21.7769 51.7535 21.7657C51.7242 21.7545 51.6975 21.7375 51.675 21.7157C51.6524 21.6939 51.6345 21.6678 51.6222 21.639C51.61 21.6101 51.6037 21.5791 51.6037 21.5478C51.6037 21.4837 51.6292 21.4223 51.6745 21.377Z" fill="white"/>
<path d="M41.8419 21.1313H42.3083V23.9549H41.8419V21.1313Z" fill="white"/>
<path d="M40.6466 21.377C40.6919 21.3317 40.7533 21.3062 40.8174 21.3062C40.88 21.3084 40.9393 21.3348 40.9828 21.3798C41.0263 21.4249 41.0506 21.4851 41.0506 21.5478C41.0402 21.6031 41.0108 21.6531 40.9674 21.689C40.9241 21.725 40.8695 21.7446 40.8132 21.7446C40.7569 21.7446 40.7023 21.725 40.659 21.689C40.6157 21.6531 40.5862 21.6031 40.5758 21.5478C40.5758 21.4837 40.6013 21.4223 40.6466 21.377Z" fill="white"/>
<path d="M47.3059 22.3307C47.4933 22.1345 47.7509 22.0207 48.0222 22.0142C48.5136 22.0142 48.7218 22.314 48.7218 22.8304V23.9549H48.2554V23.047C48.2554 22.5972 48.0971 22.4473 47.8389 22.4473C47.7671 22.4472 47.696 22.4617 47.6301 22.4902C47.5642 22.5186 47.5048 22.5603 47.4556 22.6126C47.4064 22.6649 47.3685 22.7267 47.3441 22.7943C47.3198 22.8619 47.3096 22.9337 47.3142 23.0054V23.9549H46.8477V22.0475H47.3059V22.3307Z" fill="white"/>
<path fill-rule="evenodd" clip-rule="evenodd" d="M51.3342 17.4334C51.3813 17.5467 51.4051 17.6685 51.4038 17.7913C51.4076 17.9684 51.358 18.1426 51.2614 18.2911C51.1649 18.4396 51.0258 18.5557 50.8624 18.6242L51.4288 19.5487H50.9041L50.3877 18.7158H49.9212V19.5487H49.4548V16.8751H50.4626C50.5853 16.8705 50.7077 16.891 50.8223 16.9351C50.9369 16.9792 51.0413 17.0461 51.1293 17.1318C51.2173 17.2174 51.287 17.32 51.3342 17.4334ZM49.9212 18.266H50.4626C50.5256 18.2684 50.5884 18.2577 50.647 18.2347C50.7057 18.2116 50.759 18.1767 50.8035 18.1322C50.8481 18.0876 50.883 18.0343 50.906 17.9757C50.9291 17.917 50.9397 17.8542 50.9374 17.7913C50.9409 17.7276 50.9311 17.6639 50.9086 17.6043C50.8861 17.5446 50.8514 17.4903 50.8067 17.4449C50.7621 17.3994 50.7084 17.3637 50.6491 17.3402C50.5899 17.3167 50.5263 17.3058 50.4626 17.3082H49.9212V18.266Z" fill="white"/>
<path d="M51.6204 22.0475H52.0868V23.9549H51.6204V22.0475Z" fill="white"/>
<path fill-rule="evenodd" clip-rule="evenodd" d="M51.9883 7.75875C51.522 8.54283 50.8466 9.18163 50.0378 9.60362L52.8615 14.4762H48.955L46.5396 10.3116H44.8237V14.4762H41.3504V0H47.1809C49.9962 0 52.6782 1.94071 52.6782 5.16413C52.6935 6.07627 52.4547 6.97468 51.9883 7.75875ZM44.8237 7.05487H47.1809C47.4399 7.07734 47.7007 7.04471 47.9461 6.95913C48.1915 6.87354 48.4161 6.73695 48.6049 6.55833C48.7938 6.37971 48.9427 6.16312 49.0418 5.92282C49.1409 5.68251 49.188 5.42394 49.1799 5.16413C49.1878 4.90399 49.1407 4.64511 49.0417 4.40442C48.9427 4.16373 48.7939 3.94666 48.6052 3.76741C48.4166 3.58815 48.1922 3.45075 47.9467 3.36418C47.7013 3.27762 47.4403 3.24384 47.1809 3.26506H44.8237V7.05487Z" fill="white"/>
<path d="M49.4606 23.3841C49.4117 23.2639 49.3871 23.1352 49.3882 23.0054C49.3813 22.8726 49.4018 22.7397 49.4482 22.6151C49.4946 22.4905 49.5661 22.3767 49.6582 22.2807C49.7502 22.1847 49.861 22.1086 49.9836 22.0571C50.1062 22.0055 50.238 21.9796 50.371 21.9809C50.5742 21.9745 50.7727 22.0427 50.9291 22.1725V22.6139C50.8659 22.5501 50.7906 22.4996 50.7077 22.4653C50.6247 22.4309 50.5358 22.4135 50.446 22.414C50.2972 22.414 50.1544 22.4725 50.0484 22.5769C49.9424 22.6814 49.8818 22.8233 49.8796 22.9721C49.8807 23.0454 49.8962 23.1177 49.9252 23.185C49.9543 23.2523 49.9963 23.3132 50.0489 23.3643C50.1015 23.4153 50.1636 23.4555 50.2318 23.4825C50.2999 23.5096 50.3727 23.5229 50.446 23.5218C50.5358 23.5223 50.6247 23.5049 50.7077 23.4705C50.7906 23.4362 50.8659 23.3857 50.9291 23.3219V23.7967C50.7739 23.9295 50.5753 24.0006 50.371 23.9966C50.2412 23.9966 50.1128 23.9709 49.993 23.921C49.8732 23.871 49.7645 23.7979 49.6731 23.7058C49.5817 23.6136 49.5095 23.5043 49.4606 23.3841Z" fill="white"/>
<path fill-rule="evenodd" clip-rule="evenodd" d="M17.4171 0.903858C18.8804 1.50761 20.2098 2.39597 21.3285 3.51761H21.291C23.4431 5.65901 24.7004 8.54124 24.8075 11.5783C24.9146 14.6154 23.8633 17.5793 21.8674 19.8675C20.7392 21.1657 19.3463 22.2063 17.7826 22.9192C16.219 23.6321 14.5209 24.0006 12.8029 24C9.62982 23.9965 6.58778 22.7314 4.34479 20.4825C3.25041 19.3899 2.37622 18.0963 1.76992 16.6725C0.68577 14.1178 0.519168 11.2655 1.29849 8.60148C2.07782 5.93747 3.75486 3.62662 6.0439 2.06261L6.1936 1.95761H6.25348L6.35079 1.89011L6.44061 1.83761L6.50049 1.79261L6.61277 1.72511L6.7475 1.64261L6.99451 1.50012C7.39592 1.2746 7.81089 1.07422 8.23703 0.900118C9.08534 0.547051 9.97219 0.295318 10.8793 0.150122H10.9466L11.1487 0.105122H11.2236C11.7472 0.0363013 12.2748 0.00122936 12.8029 0.000122934C14.3855 -0.00705432 15.9537 0.300108 17.4171 0.903858ZM8.46159 1.44762C8.05544 1.6117 7.66039 1.8021 7.27894 2.01761V2.00261C6.73816 2.33341 6.28805 2.79387 5.96921 3.34247C5.65037 3.89108 5.47282 4.51057 5.45258 5.1451V5.4901C6.17473 4.38434 7.13542 3.45514 8.2638 2.77106C9.39217 2.08698 10.6594 1.66547 11.9721 1.53761C11.1038 0.997618 9.99603 0.975118 8.46159 1.44762ZM14.4422 5.3701C14.005 4.17778 13.3837 3.06168 12.6008 2.06261V2.04761C11.159 2.08744 9.75298 2.50607 8.52342 3.26159C7.29386 4.01712 6.28395 5.08302 5.5948 6.35259C5.80161 7.14222 6.06939 7.91455 6.3957 8.66258C6.81909 9.62686 7.14264 10.6321 7.36128 11.6626C7.43359 12.139 7.46365 12.6208 7.4511 13.1026C9.31489 12.5851 11.0814 12.2026 12.4511 12.7126C14.0445 13.2769 15.1023 15.1647 16.1184 16.9783L16.1488 17.0325L16.5006 17.655C17.7946 17.0155 18.8971 16.0447 19.6962 14.8409C20.4954 13.6371 20.9629 12.2431 21.0515 10.8001C20.5403 10.5031 19.9704 10.2429 19.3854 9.9758L19.3674 9.96757L19.3555 9.96219C17.6817 9.20602 15.7872 8.35013 14.8389 6.26259L14.4422 5.3701ZM1.4739 13.4013C1.78729 15.9324 2.93766 18.2855 4.7415 20.085C5.7264 21.072 6.88317 21.8701 8.1547 22.44C7.93504 22.2612 7.73438 22.0601 7.55589 21.84C6.16366 20.13 6.43313 17.7525 6.70259 15.45C6.90084 14.2252 6.93859 12.9797 6.81487 11.7451C6.61148 10.7591 6.308 9.79664 5.90917 8.87258C5.17563 7.05009 4.42712 5.1751 5.31785 3.40511C4.41481 4.18613 3.63723 5.10186 3.01244 6.12009C1.70216 8.30677 1.16051 10.8701 1.4739 13.4013ZM7.98254 21.4875C8.88075 22.5825 10.4751 23.22 12.8478 23.4375C15.3379 23.4246 17.7558 22.5977 19.7341 21.0825C19.637 21.0902 19.5394 21.0902 19.4422 21.0825C19.34 21.09 19.2375 21.09 19.1353 21.0825C17.6692 20.8652 16.689 19.1199 15.6494 17.2688L15.6473 17.265L15.6263 17.2278C14.6523 15.4993 13.6461 13.7138 12.2416 13.1926C10.9841 12.7276 9.24752 13.1251 7.41367 13.6426C7.37625 14.2351 7.30888 14.85 7.23403 15.4875C7.22926 15.5338 7.22448 15.58 7.2197 15.6263C6.99186 17.8297 6.76555 20.0183 7.98254 21.4875ZM21.4931 19.5C22.4105 18.4309 23.0278 17.1368 23.2821 15.75C23.5157 14.4718 23.2475 13.1525 22.5336 12.0676C22.285 11.7092 21.976 11.397 21.6204 11.1451C21.4736 12.61 20.9586 14.0137 20.1234 15.225C19.2797 16.4617 18.1361 17.463 16.8 18.135C17.556 19.4025 18.312 20.4225 19.2476 20.565C19.9063 20.6625 20.6398 20.3175 21.4931 19.5ZM22.9752 11.7376C23.5966 12.6639 23.9253 13.7564 23.9183 14.8725L23.9333 14.895C24.3773 13.2004 24.4266 11.4261 24.0773 9.70927C23.728 7.99247 22.9895 6.3791 21.9188 4.99384C20.8481 3.60858 19.4738 2.48851 17.9023 1.72016C16.3308 0.951818 14.604 0.55577 12.8553 0.56262C12.3549 0.561546 11.855 0.591604 11.3583 0.65262C13.145 1.12027 13.9583 2.90498 14.885 4.93857C14.9095 4.99225 14.934 5.0461 14.9586 5.1001C15.0235 5.24087 15.0866 5.38337 15.1505 5.52761C15.2193 5.68309 15.2891 5.84058 15.3628 6.00009C16.2107 7.89133 17.8866 8.64735 19.5247 9.38638C19.5496 9.39761 19.5745 9.40884 19.5994 9.42007C20.9542 10.0276 22.2267 10.6051 22.9752 11.7376Z" fill="white"/>
</svg>
