<svg width="82" height="24" viewBox="0 0 82 24" fill="none" xmlns="http://www.w3.org/2000/svg">
<path d="M26.4531 7.50584C26.3378 7.32384 26.2059 7.14185 26.074 6.9764C27.0548 6.82749 27.7553 6.19878 27.7553 5.23917C27.7553 3.98175 26.8487 3.51849 25.5219 3.51849C24.7472 3.51849 23.9807 3.55985 23.7335 3.55985H23V4.18029C23.2472 4.2382 23.5357 4.27956 23.8241 4.30438V9.16861C23.5439 9.18516 23.2472 9.23479 23 9.2927V9.91314H25.4971V9.28443C25.2911 9.22652 25.0603 9.19343 24.8461 9.16861V7.15839H25.0109L26.7416 9.90487H28.2415V9.26788C27.9943 9.21825 27.7553 9.18516 27.5575 9.15207L26.4531 7.50584ZM24.8461 6.38905V4.37056C24.9944 4.36229 25.184 4.35401 25.3818 4.35401C26.2389 4.35401 26.6757 4.65182 26.6757 5.34672C26.6757 5.97543 26.1729 6.39732 25.3405 6.39732C25.118 6.4056 24.9367 6.39732 24.8461 6.38905ZM32.9061 9.90487H28.6618V9.28443C28.9091 9.22652 29.1975 9.18516 29.486 9.16034V4.29611C29.2058 4.27956 28.9091 4.22993 28.6618 4.17202V3.55158H32.8896V5.07372H32.1397C32.0902 4.809 32.049 4.55255 32.0243 4.36229H30.4997V6.26496H31.7194C31.7441 6.05815 31.7853 5.85961 31.843 5.68589H32.4858V7.60511H31.843C31.7853 7.42311 31.7359 7.20803 31.7194 7.02603H30.4997V9.08589H32.0325C32.049 8.86253 32.0985 8.60608 32.1562 8.33309H32.9061V9.90487ZM36.3675 9.28443C36.1203 9.22652 35.8318 9.18516 35.5434 9.16034V7.56375C35.7082 7.58029 35.873 7.58029 36.0131 7.58029C37.5048 7.58029 38.4938 6.66204 38.4938 5.42944C38.4938 4.25474 37.6614 3.51849 36.1532 3.51849C35.5104 3.51849 34.7275 3.55985 34.4225 3.55985H33.7055V4.18029C33.9528 4.2382 34.2412 4.27956 34.5297 4.30438V9.16861C34.2495 9.18516 33.9528 9.23479 33.7055 9.2927V9.91314H36.3675V9.28443ZM35.5434 4.37056C35.7164 4.35401 35.873 4.35401 36.0708 4.35401C36.9939 4.35401 37.4224 4.78418 37.4224 5.51217C37.4224 6.25669 36.8537 6.72822 35.9966 6.7365C35.8483 6.7365 35.6917 6.71995 35.5434 6.69513V4.37056ZM41.8645 3.10487L41.4854 2.53406L42.9688 1.5L43.4221 2.18662L41.8645 3.10487ZM39.524 4.29611C39.3097 4.27129 39.0872 4.22993 38.8976 4.18029V3.55158H41.2711V4.18029C41.0404 4.2382 40.7849 4.27129 40.5541 4.29611V7.66302C40.5541 8.50681 40.8261 9.15207 42.0211 9.15207C43.0513 9.15207 43.521 8.7219 43.521 7.53066V4.29611C43.282 4.27956 43.0183 4.2382 42.804 4.18029V3.55158H45.1611V4.18029C44.9633 4.22993 44.7572 4.26302 44.5347 4.29611V7.47275C44.5347 9.16861 43.6364 9.99586 41.9552 9.99586C39.9525 9.99586 39.524 8.90389 39.524 7.73747V4.29611ZM48.1939 9.92968C50.1471 9.92968 50.6993 8.8129 50.6993 7.98565C50.6993 7.32384 50.3119 6.69513 49.4795 6.53796V6.52141C50.1306 6.29805 50.5674 5.71898 50.5674 5.07372C50.5674 4.09757 49.8504 3.53504 48.4576 3.53504C47.6912 3.53504 46.9165 3.55985 46.4385 3.55985H45.6473V4.18029C45.8945 4.2382 46.183 4.27956 46.4714 4.30438V9.16861C46.1912 9.18516 45.8945 9.23479 45.6473 9.2927V9.91314H46.4714C47.1637 9.90487 47.8065 9.92968 48.1939 9.92968ZM47.4851 4.36229C47.7324 4.35401 48.0043 4.34574 48.2928 4.34574C49.2076 4.34574 49.496 4.70973 49.496 5.2309C49.496 5.86788 48.9933 6.25669 48.0373 6.25669C47.8313 6.25669 47.65 6.25669 47.4851 6.24842V4.36229ZM47.4851 7.02603C47.6252 7.01776 47.9549 7.01776 48.062 7.01776C48.9603 7.01776 49.6114 7.28248 49.6114 8.00219C49.6114 8.63917 49.1664 9.09416 48.2351 9.09416C47.9054 9.09416 47.65 9.07762 47.4851 9.04453V7.02603ZM55.5452 9.90487H51.3833V9.28443C51.6305 9.22652 51.919 9.18516 52.2074 9.16034V4.29611C51.9272 4.27956 51.6305 4.22993 51.3833 4.17202V3.55158H54.0535V4.18029C53.8063 4.2382 53.5178 4.27956 53.2294 4.30438V9.06107H54.6798C54.7046 8.82944 54.754 8.53163 54.8117 8.24209H55.5452V9.90487ZM58.578 9.90487H55.9078V9.28443C56.1551 9.22652 56.4435 9.18516 56.7319 9.16034V4.29611C56.4517 4.27956 56.1551 4.22993 55.9078 4.17202V3.55158H58.578V4.18029C58.3308 4.2382 58.0423 4.27956 57.7539 4.30438V9.16861C58.0341 9.18516 58.3308 9.23479 58.578 9.2927V9.90487ZM59.2208 6.91022C59.2208 4.9 60.2345 3.4854 62.4185 3.4854C62.8965 3.4854 63.4075 3.55158 63.9019 3.6674V5.33844H63.1355C63.0778 5.02409 63.0531 4.76764 63.0201 4.51119C62.7399 4.43674 62.4844 4.42019 62.2042 4.42019C60.968 4.42019 60.3582 5.38808 60.3582 6.74477C60.3582 8.19246 60.9598 9.04453 62.4597 9.04453C62.9377 9.04453 63.4816 8.92871 63.8855 8.75499L63.9514 9.69805C63.4322 9.88005 62.8388 9.98759 62.2207 9.98759C60.2263 9.98759 59.2208 8.83771 59.2208 6.91022ZM68.2699 3.55985H67.0337L64.998 9.18516C64.825 9.2017 64.6107 9.24306 64.4459 9.28443V9.90487H66.7452V9.28443C66.5309 9.23479 66.259 9.19343 66.0282 9.16861L66.3496 8.27518H68.8715L69.2011 9.16861C68.9621 9.18516 68.6984 9.23479 68.4841 9.28443V9.90487H70.8741V9.28443C70.7093 9.23479 70.495 9.2017 70.322 9.18516L68.2699 3.55985ZM66.6134 7.46448L67.3056 5.57835C67.4293 5.23917 67.5364 4.9 67.6023 4.5691H67.6188C67.693 4.91654 67.7836 5.21436 67.899 5.54526L68.6078 7.46448H66.6134ZM25.4477 12.0061C24.8049 12.0061 24.0219 12.0474 23.717 12.0474H23V12.6679C23.2472 12.7258 23.5357 12.7754 23.8241 12.792V17.6562C23.5439 17.6727 23.2472 17.7224 23 17.7803V18.4007H25.662V17.7803C25.4147 17.7224 25.1263 17.6727 24.8378 17.6562V16.0596C25.0027 16.0762 25.1675 16.0762 25.3076 16.0762C26.7993 16.0762 27.7882 15.1579 27.7882 13.9253C27.7965 12.7423 26.9641 12.0061 25.4477 12.0061ZM25.2993 15.2241C25.151 15.2241 24.9944 15.2075 24.8461 15.1827V12.8664C25.0191 12.8499 25.1757 12.8499 25.3735 12.8499C26.2965 12.8499 26.7251 13.28 26.7251 14.008C26.7251 14.7443 26.1564 15.2158 25.2993 15.2241ZM31.3732 11.9564C29.692 11.9564 28.3074 13.189 28.3074 15.2985C28.3074 17.2426 29.247 18.4917 31.1837 18.4917C32.8732 18.4917 34.2495 17.2509 34.2495 15.1414C34.2495 13.0153 33.0957 11.9564 31.3732 11.9564ZM31.2661 17.5735C30.0052 17.5735 29.4118 16.6056 29.4118 15.1662C29.4118 13.644 30.3019 12.8499 31.2826 12.8499C32.4776 12.8499 33.1534 13.7019 33.1534 15.2406C33.1534 16.8207 32.2056 17.5735 31.2661 17.5735ZM38.3042 15.9934C38.1889 15.8114 38.057 15.6294 37.9251 15.464C38.9059 15.3151 39.6064 14.6864 39.6064 13.7268C39.6064 12.4693 38.6998 12.0061 37.373 12.0061C36.5983 12.0061 35.8318 12.0474 35.5846 12.0474H34.8511V12.6679C35.0983 12.7258 35.3868 12.7754 35.6752 12.792V17.6562C35.395 17.6727 35.0983 17.7224 34.8511 17.7803V18.4007H37.3482V17.772C37.1422 17.7141 36.9114 17.681 36.6972 17.6562V15.6543H36.862L38.5927 18.4007H40.0926V17.7637C39.8454 17.7141 39.6064 17.681 39.4086 17.6479L38.3042 15.9934ZM36.6972 14.8766V12.8664C36.8455 12.8582 37.0351 12.8499 37.2329 12.8499C38.09 12.8499 38.5267 13.1477 38.5267 13.8509C38.5267 14.4796 38.024 14.9015 37.1916 14.9015C36.9691 14.8932 36.7961 14.8849 36.6972 14.8766ZM40.4387 12.0474H45.5154V13.7185H44.782C44.7243 13.3876 44.6666 13.1146 44.6501 12.883H43.4963V17.6479C43.7765 17.6645 44.0732 17.7141 44.3204 17.772V18.3925H41.642V17.772C41.8892 17.7141 42.1777 17.6645 42.4661 17.6479V12.883H41.3041C41.2876 13.1146 41.2382 13.3876 41.1805 13.7185H40.447V12.0474H40.4387ZM49.8339 12.0474H52.1909V12.6762C51.9932 12.7258 51.7871 12.7589 51.5646 12.792V15.9686C51.5646 17.6645 50.6663 18.4917 48.9851 18.4917C46.9824 18.4917 46.5538 17.3998 46.5538 16.2333V12.792C46.3396 12.7672 46.1171 12.7258 45.9275 12.6762V12.0474H48.301V12.6762C48.0703 12.7341 47.8148 12.7672 47.584 12.792V16.1589C47.584 17.0027 47.856 17.6479 49.051 17.6479C50.0812 17.6479 50.5509 17.2178 50.5509 16.0265V12.792C50.3119 12.7754 50.0482 12.7341 49.8339 12.6762V12.0474ZM58.7181 15.1248V15.7535C58.5368 15.8032 58.339 15.828 58.1412 15.8611V18.1112C57.5066 18.3594 56.7237 18.5 55.9985 18.5C54.0205 18.5 52.8091 17.3253 52.8091 15.3647C52.8091 13.3793 54.1359 11.973 56.2869 11.973C56.872 11.973 57.4489 12.0557 58.0341 12.1964V13.7764H57.2676C57.2017 13.4869 57.177 13.2221 57.144 12.9657C56.8308 12.8912 56.5094 12.8416 56.2045 12.8416C54.9271 12.8416 53.9052 13.6606 53.9052 15.2489C53.9052 16.7131 54.7458 17.5735 56.1138 17.5735C56.4847 17.5735 56.8061 17.5156 57.0946 17.4246V15.8611C56.8144 15.8445 56.5177 15.7949 56.2869 15.737V15.1248H58.7181ZM63.1108 12.0474H65.4678V12.6762C65.27 12.7258 65.064 12.7589 64.8415 12.792V15.9686C64.8415 17.6645 63.9431 18.4917 62.2619 18.4917C60.2593 18.4917 59.8307 17.3998 59.8307 16.2333V12.792C59.6164 12.7672 59.3939 12.7258 59.2044 12.6762V12.0474H61.5779V12.6762C61.3471 12.7341 61.0916 12.7672 60.8609 12.792V16.1589C60.8609 17.0027 61.1328 17.6479 62.3278 17.6479C63.358 17.6479 63.8278 17.2178 63.8278 16.0265V12.792C63.5888 12.7754 63.325 12.7341 63.1108 12.6762V12.0474ZM69.4401 16.8124H70.1901V18.3925H65.9458V17.772C66.193 17.7141 66.4815 17.6645 66.7699 17.6479V12.7837C66.4897 12.7672 66.193 12.7175 65.9458 12.6596V12.0392H70.1736V13.5613H69.4237C69.3742 13.2966 69.333 13.0401 69.3083 12.8499H67.7836V14.7526H69.0116C69.0363 14.5457 69.0775 14.3472 69.1352 14.1735H69.778V16.0927H69.1352C69.0775 15.9107 69.0281 15.6956 69.0116 15.5136H67.7919V17.5735H69.3248C69.3412 17.3418 69.3907 17.0854 69.4401 16.8124ZM75.102 16.4732C75.102 17.6397 74.1789 18.4835 72.679 18.4835C72.1763 18.4835 71.69 18.4255 71.278 18.3263V16.738H72.0362C72.0856 17.0275 72.1268 17.3005 72.1516 17.5404C72.3246 17.5818 72.5389 17.6066 72.7202 17.6066C73.4455 17.6066 74.0141 17.317 74.0141 16.6304C74.0141 15.2985 71.1708 15.8776 71.1708 13.8095C71.1708 12.7175 72.0197 11.9564 73.4867 11.9564C73.9399 11.9564 74.3355 12.0061 74.7641 12.0888V13.6192H74.0059C73.9482 13.3462 73.9152 13.0732 73.8905 12.8499C73.7833 12.8333 73.5938 12.8002 73.4454 12.8002C72.6378 12.8002 72.2422 13.1642 72.2422 13.6937C72.2505 14.9594 75.102 14.4961 75.102 16.4732ZM81.4561 17.6728L79.3957 12.0474H78.1595L76.1239 17.6728C75.9508 17.6893 75.7366 17.7307 75.5717 17.7803V18.4007H77.8711V17.7803C77.6568 17.7307 77.3848 17.6893 77.1541 17.6645L77.4755 16.771H79.9973L80.327 17.6645C80.088 17.681 79.8243 17.7307 79.61 17.7803V18.4007H82V17.7803C81.8434 17.7307 81.6291 17.6893 81.4561 17.6728ZM77.7392 15.9603L78.4315 14.0742C78.5551 13.735 78.6622 13.3959 78.7282 13.065H78.7447C78.8188 13.4124 78.9095 13.7102 79.0249 14.0411L79.7336 15.9603H77.7392Z" fill="white"/>
<path d="M8.58108 9.40163C8.68601 9.39766 8.7851 9.35194 8.85663 9.27451C8.92816 9.19707 8.96628 9.09423 8.96265 8.98852V8.43658H8.19951V8.98852C8.19588 9.09423 8.234 9.19707 8.30553 9.27451C8.37705 9.35194 8.47614 9.39766 8.58108 9.40163ZM8.77606 8.56525C8.79388 8.56458 8.81149 8.56931 8.82662 8.57882C8.84174 8.58834 8.85368 8.6022 8.86089 8.61863C8.8681 8.63505 8.87025 8.65329 8.86706 8.67096C8.86388 8.68863 8.8555 8.70493 8.84302 8.71775C8.83053 8.73057 8.81451 8.73933 8.79703 8.74288C8.77955 8.74643 8.76142 8.74462 8.74497 8.73767C8.72853 8.73073 8.71452 8.71898 8.70478 8.70393C8.69504 8.68889 8.69001 8.67124 8.69033 8.65329C8.69033 8.63023 8.69931 8.60809 8.71534 8.59163C8.73137 8.57516 8.75317 8.5657 8.77606 8.56525ZM8.77606 8.96143C8.79924 8.96143 8.82148 8.9707 8.83787 8.98721C8.85426 9.00372 8.86347 9.02612 8.86347 9.04947C8.86718 9.06257 8.86783 9.07636 8.86536 9.08976C8.86288 9.10316 8.85735 9.11579 8.84921 9.12667C8.84106 9.13755 8.83052 9.14637 8.81841 9.15244C8.8063 9.15852 8.79295 9.16169 8.77942 9.16169C8.76589 9.16169 8.75255 9.15852 8.74044 9.15244C8.72833 9.14637 8.71779 9.13755 8.70964 9.12667C8.7015 9.11579 8.69597 9.10316 8.69349 9.08976C8.69102 9.07636 8.69166 9.06257 8.69538 9.04947C8.69531 9.02725 8.70359 9.00582 8.71856 8.98949C8.73352 8.97316 8.75406 8.96314 8.77606 8.96143ZM8.58108 8.76165C8.5927 8.76164 8.60421 8.76398 8.61492 8.76851C8.62564 8.77304 8.63535 8.77967 8.64348 8.78803C8.65162 8.79638 8.65803 8.80629 8.66232 8.81717C8.66661 8.82805 8.66871 8.83968 8.66849 8.85138C8.66327 8.86978 8.65224 8.88596 8.63708 8.89748C8.62191 8.90901 8.60344 8.91524 8.58444 8.91524C8.56545 8.91524 8.54696 8.90901 8.5318 8.89748C8.51663 8.88596 8.50561 8.86978 8.50039 8.85138C8.4999 8.82887 8.50798 8.80702 8.52299 8.79033C8.538 8.77364 8.55878 8.76337 8.58108 8.76165ZM8.38273 8.56525C8.40013 8.57142 8.41521 8.58287 8.42587 8.59803C8.43654 8.6132 8.44227 8.63132 8.44227 8.64991C8.44227 8.66849 8.43654 8.68661 8.42587 8.70177C8.41521 8.71694 8.40013 8.7284 8.38273 8.73456C8.36532 8.7284 8.35025 8.71694 8.33958 8.70177C8.32892 8.68661 8.32319 8.66849 8.32319 8.64991C8.32319 8.63132 8.32892 8.6132 8.33958 8.59803C8.35025 8.58287 8.36532 8.57142 8.38273 8.56525ZM8.29532 9.04947C8.29575 9.02626 8.3051 9.00411 8.3214 8.9877C8.3377 8.97128 8.35968 8.96186 8.38273 8.96143C8.39413 8.96142 8.40542 8.96371 8.41593 8.96815C8.42644 8.9726 8.43596 8.97912 8.44395 8.98731C8.45193 8.99551 8.45821 9.00523 8.46242 9.01591C8.46663 9.02658 8.46868 9.03799 8.46846 9.04947C8.46892 9.06101 8.46703 9.07252 8.46291 9.0833C8.45878 9.09408 8.45251 9.1039 8.44448 9.11214C8.43645 9.12039 8.42683 9.1269 8.41621 9.13126C8.40559 9.13562 8.39419 9.13774 8.38273 9.1375C8.36013 9.13663 8.33876 9.12697 8.32308 9.11055C8.30741 9.09414 8.29867 9.07224 8.29868 9.04947H8.29532ZM7.79609 5.27561V4.51372C8.57424 4.56168 9.32408 4.82535 9.96279 5.27561H7.79609ZM7.52714 8.06749C7.63208 8.06352 7.73117 8.0178 7.80269 7.94037C7.87422 7.86293 7.91234 7.76009 7.90871 7.65438V7.10074H7.14558V7.65438C7.14194 7.76009 7.18007 7.86293 7.25159 7.94037C7.32312 8.0178 7.42221 8.06352 7.52714 8.06749ZM7.72381 7.23111C7.7467 7.23156 7.7685 7.24102 7.78453 7.25748C7.80056 7.27395 7.80954 7.29609 7.80954 7.31915C7.80432 7.33754 7.7933 7.35373 7.77813 7.36525C7.76297 7.37678 7.74448 7.38301 7.72549 7.38301C7.70649 7.38301 7.68802 7.37678 7.67285 7.36525C7.65769 7.35373 7.64666 7.33754 7.64144 7.31915C7.64304 7.29784 7.65228 7.27785 7.66744 7.2629C7.68259 7.24795 7.70263 7.23905 7.72381 7.23788V7.23111ZM7.72381 7.62729C7.7411 7.62729 7.758 7.63245 7.77237 7.64213C7.78674 7.6518 7.79795 7.66555 7.80456 7.68164C7.81118 7.69773 7.81291 7.71543 7.80954 7.7325C7.80616 7.74958 7.79784 7.76527 7.78562 7.77758C7.77339 7.78989 7.75782 7.79828 7.74086 7.80168C7.72391 7.80507 7.70633 7.80333 7.69036 7.79667C7.67439 7.79 7.66074 7.77872 7.65113 7.76424C7.64153 7.74976 7.6364 7.73274 7.6364 7.71533C7.63617 7.7037 7.63828 7.69215 7.64259 7.68136C7.6469 7.67058 7.65333 7.66078 7.6615 7.65256C7.66966 7.64434 7.67938 7.63786 7.69009 7.63352C7.7008 7.62917 7.71227 7.62706 7.72381 7.62729ZM7.52714 7.4292C7.54541 7.43445 7.56148 7.44556 7.57292 7.46083C7.58435 7.4761 7.59054 7.49472 7.59054 7.51385C7.59054 7.53299 7.58435 7.5516 7.57292 7.56687C7.56148 7.58215 7.54541 7.59325 7.52714 7.59851C7.50888 7.59325 7.49281 7.58215 7.48137 7.56687C7.46993 7.5516 7.46374 7.53299 7.46374 7.51385C7.46374 7.49472 7.46993 7.4761 7.48137 7.46083C7.49281 7.44556 7.50888 7.43445 7.52714 7.4292ZM7.33216 7.23788C7.35534 7.23788 7.37757 7.24715 7.39396 7.26366C7.41036 7.28017 7.41956 7.30257 7.41956 7.32592C7.41434 7.34432 7.40332 7.3605 7.38816 7.37202C7.37299 7.38354 7.35451 7.38978 7.33552 7.38978C7.31652 7.38978 7.29804 7.38354 7.28288 7.37202C7.26771 7.3605 7.25669 7.34432 7.25147 7.32592C7.2514 7.3037 7.25969 7.28228 7.27465 7.26595C7.28962 7.24962 7.31016 7.23959 7.33216 7.23788ZM7.24643 7.7221C7.24643 7.70461 7.2516 7.68753 7.26128 7.67301C7.27096 7.6585 7.28472 7.64723 7.30079 7.64062C7.31686 7.63401 7.33452 7.63236 7.35152 7.63589C7.36852 7.63943 7.38409 7.64798 7.39624 7.66047C7.4084 7.67295 7.41659 7.6888 7.41977 7.70599C7.42295 7.72318 7.42097 7.74093 7.4141 7.75698C7.40722 7.77304 7.39576 7.78666 7.38117 7.79613C7.36657 7.8056 7.34951 7.81048 7.33216 7.81014C7.32015 7.8102 7.30827 7.80771 7.29728 7.80286C7.28629 7.798 7.27644 7.79087 7.26836 7.78193C7.26028 7.77299 7.25415 7.76245 7.25037 7.75098C7.24659 7.73951 7.24525 7.72736 7.24643 7.71533V7.7221ZM7.707 6.41336H7.34897C7.34517 6.35571 7.35932 6.2983 7.38946 6.24913C7.41959 6.19997 7.46419 6.1615 7.51706 6.13908C7.57309 6.15757 7.62191 6.19337 7.65661 6.24138C7.69131 6.2894 7.71012 6.3472 7.71036 6.40659L7.707 6.41336ZM9.988 8.81921H9.62661C9.62459 8.76057 9.64063 8.70272 9.67253 8.65362C9.70443 8.60451 9.75062 8.56655 9.80478 8.54493C9.85839 8.56593 9.90451 8.60266 9.93718 8.65035C9.96984 8.69804 9.98754 8.7545 9.988 8.81244V8.81921ZM9.988 6.41336H9.62661C9.62409 6.35461 9.63992 6.29655 9.67189 6.24735C9.70385 6.19814 9.75033 6.16028 9.80478 6.13908C9.85866 6.15969 9.90504 6.19631 9.93776 6.24409C9.97048 6.29187 9.988 6.34854 9.988 6.40659V6.41336ZM9.25512 10.9846C9.27796 11.0389 9.28393 11.0989 9.27222 11.1566C9.26052 11.2143 9.2317 11.2671 9.18957 11.308L8.93407 11.049C8.97438 11.0061 9.02702 10.9769 9.08461 10.9657C9.14219 10.9545 9.20182 10.9617 9.25512 10.9863V10.9846ZM4.63429 9.43887C4.65982 10.1918 4.97472 10.9053 5.51255 11.4288C6.05039 11.9524 6.7691 12.245 7.51706 12.245C8.26501 12.245 8.98372 11.9524 9.52156 11.4288C10.0594 10.9053 10.3743 10.1918 10.3998 9.43887V5.49909H4.63765L4.63429 9.43887ZM9.42826 6.40827H9.4417L9.46692 6.14077C9.45889 6.14057 9.45099 6.13872 9.4437 6.13533C9.43641 6.13194 9.42989 6.12707 9.42454 6.12105C9.41919 6.11502 9.41511 6.10795 9.41257 6.10028C9.41003 6.0926 9.40907 6.08449 9.40977 6.07644C9.4093 6.06779 9.41062 6.05913 9.41364 6.05102C9.41666 6.0429 9.42132 6.03551 9.42733 6.0293C9.43333 6.0231 9.44054 6.01821 9.44852 6.01496C9.45649 6.01171 9.46504 6.01016 9.47364 6.0104V5.89019H9.44339C9.44339 5.89019 9.4333 5.8902 9.4333 5.87666V5.792H9.47028V5.83601H9.52575V5.792H9.56441V5.83601H9.61988V5.792H9.66023V5.88342C9.66023 5.88342 9.65182 5.89528 9.64678 5.89528H9.61988V6.01549H9.69384L9.70897 5.75983H9.68712C9.68375 5.75871 9.68072 5.75671 9.67836 5.75404C9.676 5.75136 9.67438 5.7481 9.67367 5.74459V5.66333H9.72746V5.70057H9.78293V5.66333H9.82327V5.70057H9.87874V5.66333H9.91741V5.74459L9.91691 5.7503L9.91411 5.75529L9.90952 5.75867L9.90396 5.75983H9.88211L9.89891 6.01549H9.96951L9.97792 5.89528H9.94934C9.94578 5.89528 9.94235 5.89385 9.93983 5.89131C9.93731 5.88877 9.93589 5.88532 9.93589 5.88173V5.79708H9.97287V5.8411H10.0283V5.79708H10.0704V5.8411H10.1242V5.79708H10.1611V5.88342L10.1602 5.88796L10.1577 5.8918L10.1539 5.89438L10.1494 5.89528H10.1208L10.1292 6.01549C10.138 6.01526 10.1467 6.0168 10.1548 6.02001C10.163 6.02323 10.1704 6.02806 10.1766 6.03421C10.1829 6.04037 10.1879 6.04773 10.1913 6.05585C10.1947 6.06397 10.1964 6.0727 10.1964 6.08151C10.1962 6.09825 10.1899 6.11433 10.1788 6.12677C10.1676 6.13922 10.1524 6.1472 10.1359 6.14924L10.1628 6.41336H10.1746C10.1833 6.41334 10.1919 6.41511 10.1998 6.41855C10.2078 6.422 10.215 6.42705 10.221 6.43338C10.227 6.43972 10.2316 6.44721 10.2346 6.45541C10.2376 6.46361 10.2389 6.47235 10.2385 6.48108C10.2385 6.49815 10.2317 6.51451 10.2198 6.52657C10.2078 6.53864 10.1915 6.54541 10.1746 6.54541H9.41817C9.40137 6.54498 9.38537 6.53807 9.37348 6.5261C9.36159 6.51412 9.35472 6.49801 9.3543 6.48108C9.3529 6.47097 9.35385 6.46067 9.35708 6.45099C9.3603 6.44131 9.36571 6.43251 9.37287 6.42529C9.38004 6.41807 9.38877 6.41262 9.39838 6.40938C9.40799 6.40613 9.41822 6.40518 9.42826 6.40659V6.40827ZM9.42826 8.81413H9.4417L9.46692 8.54662C9.45113 8.54408 9.43675 8.53596 9.42636 8.5237C9.41598 8.51145 9.41028 8.49586 9.41028 8.47975C9.41028 8.46364 9.41598 8.44805 9.42636 8.43579C9.43675 8.42354 9.45113 8.41541 9.46692 8.41287V8.29605H9.43666C9.43666 8.29605 9.42658 8.29605 9.42658 8.2825V8.19785H9.46356V8.24018H9.51903V8.19785H9.55769V8.24018H9.61316V8.19785H9.6535V8.2825C9.65288 8.28586 9.65126 8.28896 9.64886 8.29138C9.64646 8.2938 9.64339 8.29543 9.64006 8.29605H9.61316V8.41287H9.68712L9.70225 8.15722H9.6804C9.67695 8.15685 9.67374 8.1553 9.6713 8.15284C9.66885 8.15037 9.66732 8.14714 9.66695 8.14367V8.06071H9.72746V8.10304H9.78293V8.06071H9.82327V8.10304H9.87874V8.06071H9.91741V8.14537L9.91638 8.15034L9.91339 8.15441L9.90898 8.15686L9.90396 8.15722H9.88211L9.89891 8.41287H9.96951L9.97792 8.29605H9.94934C9.9459 8.29568 9.94269 8.29414 9.94024 8.29167C9.9378 8.2892 9.93626 8.28597 9.93589 8.2825V8.19785H9.97287V8.24018H10.0283V8.19785H10.0704V8.24018H10.1242V8.19785H10.1611V8.2825C10.1612 8.28582 10.16 8.28904 10.1578 8.29154C10.1556 8.29403 10.1526 8.29564 10.1494 8.29605H10.1208L10.1292 8.41287C10.147 8.41287 10.1641 8.42 10.1767 8.4327C10.1894 8.4454 10.1964 8.46264 10.1964 8.4806C10.1965 8.49727 10.1903 8.51334 10.1791 8.52558C10.1678 8.53783 10.1524 8.54534 10.1359 8.54662L10.1628 8.81413H10.1746C10.1831 8.81413 10.1916 8.81585 10.1994 8.81918C10.2073 8.82252 10.2144 8.82741 10.2204 8.83357C10.2263 8.83972 10.231 8.84702 10.2341 8.85502C10.2372 8.86302 10.2387 8.87157 10.2385 8.88016C10.2385 8.88846 10.2368 8.89667 10.2336 8.90429C10.2303 8.91192 10.2255 8.9188 10.2196 8.92451C10.2136 8.93021 10.2065 8.93463 10.1988 8.93748C10.191 8.94034 10.1828 8.94157 10.1746 8.94111H9.41817C9.41001 8.94134 9.40187 8.93994 9.39424 8.937C9.38661 8.93406 9.37963 8.92963 9.3737 8.92397C9.36777 8.91831 9.363 8.91153 9.35967 8.90401C9.35634 8.8965 9.35452 8.88839 9.3543 8.88016C9.35367 8.87051 9.35521 8.86083 9.35881 8.85186C9.3624 8.84289 9.36796 8.83485 9.37507 8.82834C9.38218 8.82183 9.39065 8.81702 9.39986 8.81427C9.40907 8.81151 9.41878 8.81089 9.42826 8.81244V8.81413ZM9.27698 10.5885L9.30555 10.558L9.33413 10.5868L9.30555 10.6156L9.34253 10.6562L9.37111 10.6291L9.39968 10.6545L9.34085 10.7121C9.34085 10.7121 9.32908 10.7121 9.32236 10.7121L9.30723 10.6985L9.23159 10.7866L9.28034 10.8374L9.4686 10.668L9.45515 10.6562C9.45515 10.6562 9.44675 10.641 9.45515 10.6359L9.51566 10.5749L9.54088 10.602L9.51062 10.6342L9.55264 10.6731L9.57954 10.6426L9.60812 10.6731L9.57954 10.7002L9.6182 10.7408L9.64846 10.7138L9.67367 10.7408L9.61484 10.7967C9.61484 10.7967 9.60475 10.7967 9.59635 10.7967L9.5829 10.7815L9.41481 10.9728L9.46692 11.0253L9.55433 10.9508L9.53752 10.9356L9.53491 10.9317L9.53399 10.9271L9.53491 10.9225L9.53752 10.9186L9.59635 10.8577L9.62156 10.8864L9.59467 10.9152L9.63333 10.9559L9.6619 10.9237L9.69048 10.9542L9.6619 10.983L9.70057 11.0219L9.72914 10.9931L9.75604 11.0202L9.69888 11.0812C9.69607 11.0828 9.69288 11.0836 9.68964 11.0836C9.68639 11.0836 9.68321 11.0828 9.6804 11.0812L9.66527 11.0642L9.58963 11.1523C9.60322 11.1639 9.61166 11.1806 9.61308 11.1985C9.6145 11.2165 9.60878 11.2342 9.59719 11.2479C9.5856 11.2616 9.56908 11.2701 9.55127 11.2715C9.53346 11.273 9.51582 11.2672 9.50222 11.2555L9.33413 11.4621H9.34253C9.34853 11.4681 9.35329 11.4752 9.35654 11.483C9.35979 11.4909 9.36146 11.4993 9.36146 11.5078C9.36146 11.5163 9.35979 11.5247 9.35654 11.5326C9.35329 11.5404 9.34853 11.5475 9.34253 11.5535C9.33701 11.5603 9.33008 11.5657 9.32224 11.5694C9.31439 11.5731 9.30582 11.5751 9.29715 11.5751C9.28847 11.5751 9.2799 11.5731 9.27206 11.5694C9.26421 11.5657 9.25728 11.5603 9.25176 11.5535L8.71555 11.0134C8.70406 11.0004 8.69796 10.9835 8.69854 10.9661C8.69911 10.9487 8.7063 10.9322 8.71861 10.9201C8.73093 10.9079 8.74744 10.9009 8.76471 10.9006C8.78197 10.9004 8.79868 10.9068 8.81136 10.9186V10.9288L9.01307 10.7595C9.00208 10.7468 8.99602 10.7306 8.99602 10.7138C8.99602 10.6969 9.00208 10.6807 9.01307 10.668C9.02564 10.6556 9.04254 10.6487 9.06014 10.6487C9.07774 10.6487 9.09464 10.6556 9.1072 10.668L9.19461 10.5902L9.18116 10.5732C9.1788 10.5707 9.17748 10.5674 9.17748 10.5639C9.17748 10.5605 9.1788 10.5571 9.18116 10.5546L9.24167 10.497L9.26857 10.5224L9.23831 10.5529L9.27698 10.5885ZM7.15062 6.40827H7.15902L7.1876 6.14077C7.17125 6.13991 7.15585 6.13274 7.14459 6.12077C7.13333 6.1088 7.12706 6.09293 7.12708 6.07644C7.12685 6.0677 7.12839 6.05901 7.1316 6.05089C7.13482 6.04278 7.13964 6.0354 7.14577 6.02922C7.15191 6.02304 7.15922 6.01819 7.16728 6.01495C7.17534 6.01172 7.18397 6.01017 7.19264 6.0104L7.20609 5.88342H7.17583C7.17256 5.88301 7.16956 5.8814 7.16739 5.87891C7.16522 5.87641 7.16404 5.87319 7.16406 5.86988V5.78522H7.20609V5.82924H7.2666V5.78522H7.3019V5.82924H7.35737V5.78522H7.39771V5.88342C7.39771 5.88342 7.38931 5.89528 7.38426 5.89528H7.35569L7.36409 6.01549H7.43805L7.45318 5.75983H7.43133C7.42795 5.75871 7.42493 5.75671 7.42257 5.75404C7.42021 5.75136 7.41859 5.7481 7.41788 5.74459V5.66333H7.45318V5.70057H7.51201V5.66333H7.54227V5.70057H7.59774V5.66333H7.63808V5.74459C7.63771 5.74851 7.636 5.75216 7.63324 5.75495C7.63048 5.75773 7.62684 5.75946 7.62296 5.75983H7.60278L7.61623 6.01549H7.68851L7.69692 5.89528H7.66834C7.665 5.89465 7.66193 5.89302 7.65953 5.89061C7.65713 5.88819 7.65552 5.88509 7.65489 5.88173V5.79708H7.69355V5.8411H7.74734V5.79708H7.78937V5.8411H7.84483V5.79708H7.87845V5.88342L7.87756 5.88796L7.87501 5.8918L7.87119 5.89438L7.86669 5.89528H7.83643V6.01549H7.84483C7.85358 6.01526 7.86229 6.0168 7.87044 6.02001C7.87859 6.02323 7.88601 6.02806 7.89228 6.03421C7.89855 6.04037 7.90352 6.04773 7.90692 6.05585C7.91032 6.06397 7.91208 6.0727 7.91207 6.08151C7.91139 6.0984 7.90475 6.11451 7.89336 6.12692C7.88196 6.13933 7.86654 6.14724 7.84988 6.14924L7.87509 6.41336H7.88854C7.90592 6.41336 7.9226 6.42031 7.9349 6.43269C7.94719 6.44507 7.9541 6.46188 7.9541 6.47939C7.9541 6.4969 7.94719 6.51369 7.9349 6.52608C7.9226 6.53846 7.90592 6.54541 7.88854 6.54541H7.13549C7.11839 6.54542 7.10197 6.53869 7.08972 6.52668C7.07747 6.51466 7.07037 6.4983 7.06993 6.48108C7.06822 6.47029 7.06918 6.45924 7.07275 6.44892C7.07631 6.43861 7.08237 6.42934 7.09037 6.42195C7.09836 6.41457 7.10805 6.4093 7.11857 6.40662C7.12908 6.40394 7.1401 6.40393 7.15062 6.40659V6.40827ZM5.79412 6.67578H9.24167V9.43887C9.24167 9.89958 9.05998 10.3414 8.73655 10.6672C8.41312 10.993 7.97445 11.176 7.51706 11.176C7.05966 11.176 6.621 10.993 6.29757 10.6672C5.97414 10.3414 5.79244 9.89958 5.79244 9.43887L5.79412 6.67578ZM5.69326 10.624L5.72184 10.6511L5.7605 10.6105L5.73024 10.5817L5.7605 10.5529L5.78908 10.5834L5.82942 10.5428L5.79916 10.5123L5.82773 10.4869L5.88489 10.5445L5.88819 10.5486L5.88937 10.5538L5.88819 10.5589L5.88489 10.5631L5.86976 10.58L5.95717 10.6579C5.96974 10.6455 5.98663 10.6385 6.00423 10.6385C6.02183 10.6385 6.03873 10.6455 6.0513 10.6579C6.06197 10.6707 6.06782 10.6869 6.06782 10.7036C6.06782 10.7203 6.06197 10.7365 6.0513 10.7493L6.25469 10.9186L6.26477 10.9085C6.27074 10.9022 6.27791 10.8971 6.28586 10.8937C6.2938 10.8903 6.30235 10.8885 6.311 10.8885C6.31964 10.8885 6.3282 10.8903 6.33614 10.8937C6.34409 10.8971 6.35126 10.9022 6.35723 10.9085C6.36857 10.9209 6.37485 10.9373 6.37485 10.9542C6.37485 10.9711 6.36857 10.9874 6.35723 10.9999L5.82437 11.54C5.81854 11.5468 5.81131 11.5522 5.80319 11.556C5.79507 11.5597 5.78624 11.5617 5.77731 11.5617C5.76838 11.5617 5.75955 11.5597 5.75143 11.556C5.74331 11.5522 5.73608 11.5468 5.73024 11.54C5.72425 11.534 5.71949 11.5269 5.71624 11.519C5.71299 11.5112 5.71131 11.5028 5.71131 11.4943C5.71131 11.4858 5.71299 11.4773 5.71624 11.4695C5.71949 11.4616 5.72425 11.4545 5.73024 11.4486H5.73865L5.57055 11.242C5.55744 11.2526 5.54113 11.2583 5.52433 11.2583C5.50753 11.2583 5.49122 11.2526 5.47811 11.242C5.46606 11.2289 5.45936 11.2116 5.45936 11.1937C5.45936 11.1759 5.46606 11.1586 5.47811 11.1455L5.40414 11.0575L5.38902 11.0744C5.38653 11.0761 5.38361 11.077 5.38061 11.077C5.37762 11.077 5.37469 11.0761 5.37221 11.0744L5.31337 11.0134L5.33859 10.9863L5.37052 11.0151L5.40919 10.9762L5.37893 10.9474L5.40919 10.9169L5.43608 10.9491L5.47642 10.9085L5.44617 10.8797L5.47138 10.8509L5.5319 10.9118L5.53451 10.9157L5.53543 10.9203L5.53451 10.9249L5.5319 10.9288L5.51509 10.944L5.60249 11.0185L5.6546 10.966L5.48651 10.7747L5.47475 10.7899C5.47475 10.7899 5.45793 10.7899 5.45457 10.7899L5.39742 10.7341L5.42264 10.707L5.45289 10.7341L5.49155 10.6934L5.46298 10.6664L5.48987 10.6359L5.52013 10.6664L5.55879 10.6274L5.53021 10.5952L5.55879 10.5682L5.61594 10.6291C5.61842 10.6319 5.61979 10.6355 5.61979 10.6393C5.61979 10.643 5.61842 10.6466 5.61594 10.6494L5.60081 10.6613L5.79075 10.8306L5.8395 10.7798L5.76386 10.6918L5.75041 10.7053C5.75041 10.7053 5.7336 10.7053 5.73024 10.7053L5.67309 10.6477L5.69326 10.624ZM4.8528 6.40659L4.87802 6.13908C4.86167 6.13821 4.84627 6.13105 4.83501 6.11907C4.82375 6.1071 4.81748 6.09123 4.81751 6.07474C4.8175 6.06593 4.81925 6.0572 4.82265 6.04907C4.82605 6.04095 4.83103 6.0336 4.8373 6.02744C4.84356 6.02129 4.85099 6.01646 4.85914 6.01325C4.86729 6.01003 4.87599 6.00848 4.88474 6.00871V5.88851H4.85785C4.85441 5.88814 4.85119 5.88659 4.84875 5.88413C4.8463 5.88166 4.84477 5.87843 4.8444 5.87496V5.79031H4.88138V5.83433H4.93853V5.79031H4.97887V5.83433H5.03266V5.79031H5.073V5.88342C5.073 5.88342 5.0646 5.89528 5.05956 5.89528H5.03098V6.01549H5.10494L5.12007 5.75983H5.0999C5.09621 5.75898 5.09284 5.75709 5.09016 5.7544C5.08749 5.7517 5.08562 5.7483 5.08477 5.74459V5.66333H5.12511V5.70057H5.1789V5.66333H5.21924V5.70057H5.27303V5.66333H5.3117V5.74459C5.3117 5.75475 5.3117 5.75983 5.29993 5.75983H5.27808L5.29489 6.01549H5.36716V5.89528H5.33859C5.33859 5.89528 5.3285 5.89527 5.3285 5.88173V5.79708H5.3638V5.8411H5.41927V5.79708H5.45961V5.8411H5.51509V5.79708H5.55375V5.88342C5.55339 5.88644 5.55204 5.88925 5.5499 5.8914C5.54777 5.89355 5.54498 5.89492 5.54198 5.89528H5.5134V6.01549C5.52215 6.01526 5.53086 6.0168 5.53901 6.02001C5.54715 6.02323 5.55458 6.02806 5.56085 6.03421C5.56711 6.04037 5.57209 6.04773 5.57549 6.05585C5.57889 6.06397 5.58064 6.0727 5.58064 6.08151C5.58069 6.09863 5.5743 6.11513 5.56276 6.12769C5.55122 6.14026 5.53539 6.14795 5.51845 6.14924L5.54702 6.41336H5.55711C5.57449 6.41336 5.59117 6.42031 5.60346 6.43269C5.61576 6.44507 5.62266 6.46188 5.62266 6.47939C5.62266 6.4969 5.61576 6.51369 5.60346 6.52608C5.59117 6.53846 5.57449 6.54541 5.55711 6.54541H4.8528C4.83616 6.54497 4.82034 6.538 4.80872 6.52598C4.7971 6.51396 4.79061 6.49786 4.79061 6.48108C4.78944 6.47201 4.79015 6.46278 4.7927 6.454C4.79526 6.44522 4.79959 6.43706 4.80544 6.43006C4.81129 6.42305 4.81852 6.41735 4.82667 6.4133C4.83483 6.40926 4.84373 6.40698 4.8528 6.40659ZM4.8528 8.81244L4.87802 8.54493C4.8618 8.54293 4.84681 8.53521 4.83572 8.52311C4.82464 8.51102 4.81818 8.49535 4.81751 8.47891C4.81751 8.46094 4.82459 8.44372 4.8372 8.43102C4.84981 8.41832 4.86691 8.41118 4.88474 8.41118V8.29436H4.85785C4.85451 8.29373 4.85144 8.2921 4.84904 8.28969C4.84664 8.28727 4.84502 8.28417 4.8444 8.28081V8.19616H4.88138V8.23848H4.93853V8.19616H4.97887V8.23848H5.03266V8.19616H5.073V8.28081C5.07238 8.28417 5.07077 8.28727 5.06837 8.28969C5.06597 8.2921 5.0629 8.29373 5.05956 8.29436H5.03098V8.41118H5.10494L5.12007 8.15552H5.0999C5.09616 8.15555 5.09255 8.15418 5.08975 8.15168C5.08696 8.14918 5.08519 8.14573 5.08477 8.14199V8.05902H5.12511V8.10134H5.1789V8.05902H5.21924V8.10134H5.27303V8.05902H5.3117V8.14367L5.31141 8.14855L5.30891 8.15272L5.30477 8.15524L5.29993 8.15552H5.27808L5.29489 8.41118H5.36716V8.29436H5.33859C5.33859 8.29436 5.3285 8.29435 5.3285 8.28081V8.19616H5.3638V8.23848H5.41927V8.19616H5.45961V8.23848H5.51509V8.19616H5.55375V8.28081C5.55347 8.28403 5.55218 8.28709 5.55006 8.28952C5.54795 8.29195 5.54512 8.29365 5.54198 8.29436H5.5134V8.41118C5.53124 8.41118 5.54834 8.41832 5.56095 8.43102C5.57355 8.44372 5.58064 8.46094 5.58064 8.47891C5.58066 8.49585 5.57422 8.51215 5.56264 8.52444C5.55107 8.53673 5.53524 8.54406 5.51845 8.54493L5.54702 8.81244H5.55711C5.56586 8.81221 5.57456 8.81376 5.58271 8.81697C5.59086 8.82019 5.59829 8.82502 5.60455 8.83117C5.61082 8.83733 5.6158 8.84468 5.6192 8.8528C5.6226 8.86092 5.62435 8.86965 5.62434 8.87847C5.62391 8.88692 5.62183 8.8952 5.61822 8.90285C5.61461 8.91049 5.60953 8.91733 5.60328 8.923C5.59704 8.92866 5.58974 8.93302 5.58182 8.93584C5.57389 8.93866 5.5655 8.93987 5.55711 8.93942H4.8528C4.8366 8.93942 4.82103 8.93306 4.80941 8.92167C4.79779 8.91029 4.79105 8.89479 4.79061 8.87847C4.79039 8.87002 4.79182 8.86161 4.79482 8.85372C4.79783 8.84583 4.80235 8.8386 4.80812 8.83247C4.8139 8.82634 4.82082 8.82141 4.82848 8.81798C4.83615 8.81454 4.84442 8.81266 4.8528 8.81244ZM6.45136 18.0194V23.9993C6.45136 23.9993 0.400059 24.111 0.684134 21.5274C1.13126 18.4528 6.44463 18.0194 6.44463 18.0194H6.45136ZM7.26828 13.7867V12.5575C6.53749 12.4913 5.85371 12.1662 5.33859 11.6399C5.14969 11.4477 4.98587 11.2321 4.85112 10.9982C4.67463 11.0371 4.50317 11.0795 4.34685 11.1269C4.04596 11.2098 3.61397 11.3876 3.50639 11.5315C3.50173 11.5365 3.49828 11.5425 3.49631 11.549C3.49434 11.5555 3.49391 11.5625 3.49505 11.5692C3.49619 11.5759 3.49887 11.5823 3.50289 11.5878C3.5069 11.5933 3.51212 11.5978 3.51816 11.6009C3.49509 11.5943 3.47494 11.58 3.46101 11.5603C3.44924 11.5417 3.20047 11.1065 3.20047 11.1065C3.20443 11.08 3.21613 11.0553 3.23408 11.0354C2.94504 10.4545 2.77362 9.82139 2.72981 9.17306C2.89914 9.12909 3.07089 9.09517 3.24417 9.07148C3.2723 9.66395 3.42106 10.2443 3.68121 10.7764C3.84639 10.7115 4.01469 10.655 4.18548 10.6071C4.32163 10.5665 4.46451 10.5326 4.60571 10.497C4.48542 10.1597 4.42345 9.80408 4.42249 9.44564V8.50092H4.37206C3.98557 8.57673 3.60562 8.68316 3.23576 8.81921L3.14668 8.85307C3.04118 8.8958 2.93941 8.94734 2.84243 9.00714C2.81217 9.02577 2.78528 9.04777 2.76006 9.0664C2.73621 9.08638 2.71478 9.10911 2.69619 9.13412C2.68611 9.14598 2.65921 9.18322 2.68442 9.212C2.67434 9.20353 2.64913 9.19168 2.64913 9.16967V8.60927C2.66526 8.57083 2.69139 8.5375 2.72476 8.51277C2.76067 7.96583 2.88796 7.42893 3.10129 6.92467C3.25507 7.01272 3.40277 7.11114 3.54337 7.21926C3.41298 7.54558 3.32267 7.88672 3.27442 8.2351C3.62633 8.11077 3.98708 8.01342 4.35357 7.94389C4.37564 7.93816 4.39812 7.9342 4.42081 7.93204V7.28698C3.83417 7.02624 3.38704 6.87556 3.16516 6.87556C3.10465 6.87556 3.03909 6.87556 3.02397 6.98053C3.01581 6.95406 3.01581 6.92573 3.02397 6.89927L3.44251 6.07135C3.4885 6.04314 3.54165 6.02902 3.59548 6.03072C4.00692 5.43933 4.54496 4.94853 5.16987 4.59454C5.79479 4.24056 6.49064 4.03242 7.20609 3.98549L7.13549 4.51881C6.40204 4.5868 5.69879 4.84586 5.09486 5.27053H7.25988V0C2.44405 1.57117 0 5.7192 0 12.1173V21.8203C0 21.8203 0.806837 15.5847 7.26156 13.785L7.26828 13.7867ZM4.10984 11.457C4.467 11.94 4.92087 12.3421 5.44207 12.6372C5.96327 12.9324 6.54019 13.114 7.13549 13.1704L7.20945 13.7054C6.47494 13.6554 5.76168 13.436 5.12482 13.064C4.48796 12.6921 3.94457 12.1776 3.53665 11.5603C3.57699 11.5383 4.0695 11.4553 4.10312 11.4553L4.10984 11.457ZM7.53387 9.40332C7.6388 9.39935 7.73789 9.35364 7.80942 9.2762C7.88094 9.19876 7.91907 9.09591 7.91543 8.99021V8.43827H7.1523V8.99021C7.14907 9.0945 7.18648 9.19594 7.25652 9.27282C7.32657 9.3497 7.4237 9.39593 7.52714 9.40163L7.53387 9.40332ZM7.73053 8.56694C7.74829 8.5666 7.76574 8.57162 7.78065 8.58135C7.79556 8.59108 7.80723 8.60509 7.81418 8.62155C7.82113 8.63802 7.82304 8.65619 7.81966 8.67376C7.81627 8.69132 7.80775 8.70746 7.79519 8.72011C7.78263 8.73277 7.76661 8.74134 7.74917 8.74475C7.73173 8.74816 7.71368 8.74624 7.69734 8.73924C7.68099 8.73224 7.6671 8.72047 7.65744 8.70546C7.64778 8.69045 7.64279 8.67287 7.64313 8.65498C7.64263 8.63247 7.65072 8.61062 7.66572 8.59393C7.68073 8.57724 7.70152 8.56698 7.72381 8.56525L7.73053 8.56694ZM7.73053 8.96312C7.75342 8.96357 7.77523 8.97304 7.79126 8.9895C7.80729 9.00597 7.81626 9.02811 7.81626 9.05116C7.81998 9.06427 7.82062 9.07806 7.81815 9.09146C7.81567 9.10485 7.81014 9.11748 7.80199 9.12836C7.79385 9.13924 7.7833 9.14806 7.7712 9.15414C7.75909 9.16022 7.74574 9.16338 7.73221 9.16338C7.71869 9.16338 7.70534 9.16022 7.69323 9.15414C7.68112 9.14806 7.67058 9.13924 7.66243 9.12836C7.65429 9.11748 7.64876 9.10485 7.64628 9.09146C7.64381 9.07806 7.64445 9.06427 7.64817 9.05116C7.64756 9.02944 7.65494 9.00826 7.66891 8.99169C7.68287 8.97513 7.70243 8.96434 7.72381 8.96143L7.73053 8.96312ZM7.52714 8.76165C7.53862 8.76187 7.54994 8.76436 7.56047 8.76899C7.57099 8.77362 7.5805 8.78029 7.58846 8.78863C7.59642 8.79696 7.60268 8.80678 7.60686 8.81755C7.61105 8.82832 7.61309 8.83982 7.61287 8.85138C7.61287 8.87428 7.60384 8.89624 7.58776 8.91243C7.57168 8.92863 7.54988 8.93772 7.52714 8.93772C7.50441 8.93772 7.4826 8.92863 7.46652 8.91243C7.45045 8.89624 7.44141 8.87428 7.44141 8.85138C7.44119 8.83982 7.44323 8.82832 7.44742 8.81755C7.45161 8.80678 7.45786 8.79696 7.46582 8.78863C7.47378 8.78029 7.4833 8.77362 7.49382 8.76899C7.50434 8.76436 7.51566 8.76187 7.52714 8.76165ZM7.33216 8.56356C7.34998 8.56288 7.36759 8.56761 7.38271 8.57713C7.39783 8.58664 7.40977 8.60051 7.41698 8.61693C7.42419 8.63336 7.42634 8.65159 7.42316 8.66926C7.41997 8.68693 7.41159 8.70323 7.3991 8.71605C7.38662 8.72888 7.3706 8.73763 7.35312 8.74119C7.33564 8.74474 7.31751 8.74293 7.30106 8.73599C7.28462 8.72904 7.27062 8.71728 7.26088 8.70224C7.25114 8.68719 7.2461 8.66955 7.24643 8.65159C7.24686 8.62883 7.25603 8.60712 7.27201 8.59102C7.288 8.57492 7.30955 8.56569 7.33216 8.56525V8.56356ZM7.24643 9.04778C7.24271 9.03467 7.24207 9.02088 7.24454 9.00748C7.24702 8.99409 7.25255 8.98145 7.26069 8.97057C7.26884 8.95969 7.27938 8.95087 7.29149 8.94479C7.3036 8.93871 7.31694 8.93555 7.33047 8.93555C7.344 8.93555 7.35735 8.93871 7.36945 8.94479C7.38156 8.95087 7.39211 8.95969 7.40025 8.97057C7.4084 8.98145 7.41393 8.99409 7.41641 9.00748C7.41888 9.02088 7.41824 9.03467 7.41452 9.04778C7.41824 9.06088 7.41888 9.07467 7.41641 9.08807C7.41393 9.10146 7.4084 9.1141 7.40025 9.12498C7.39211 9.13586 7.38156 9.14468 7.36945 9.15076C7.35735 9.15684 7.344 9.16 7.33047 9.16C7.31694 9.16 7.3036 9.15684 7.29149 9.15076C7.27938 9.14468 7.26884 9.13586 7.26069 9.12498C7.25255 9.1141 7.24702 9.10146 7.24454 9.08807C7.24207 9.07467 7.24271 9.06088 7.24643 9.04778ZM7.79945 1.8319C7.79945 1.8319 11.4638 0.423265 16.678 0.123591C16.678 0.123591 16.6629 4.54082 16.5234 8.12844C16.5016 8.68207 16.4562 9.19337 16.3923 9.66743C15.1215 18.9235 5.84959 13.9323 1.19009 19.6667C2.1751 17.0594 5.51845 15.2021 7.79945 14.7433V13.7054C8.47883 13.6659 9.14206 13.4811 9.74493 13.1632C10.3478 12.8452 10.8765 12.4016 11.2958 11.8617C11.1463 11.7677 10.9914 11.6829 10.8318 11.6077C10.4615 12.0644 10.0018 12.4394 9.48117 12.7091C8.96059 12.9789 8.39039 13.1376 7.80618 13.1755V12.5541C8.53154 12.49 9.21068 12.1684 9.72242 11.6466C9.95793 11.4073 10.1542 11.1319 10.304 10.8306C10.8873 11.2826 11.2403 11.6179 11.321 11.7872C11.4017 11.9565 11.3042 11.9463 11.2907 11.9565C11.3083 11.9559 11.3254 11.9507 11.3404 11.9415C11.3554 11.9323 11.3678 11.9194 11.3764 11.904C11.3899 11.8837 11.4285 11.8176 11.4285 11.8176L11.8639 11.1607C11.8744 11.1331 11.8783 11.1035 11.8754 11.0741C11.8725 11.0447 11.8628 11.0164 11.8471 10.9914C12.1256 10.4174 12.2895 9.7938 12.3295 9.15613C12.1607 9.10937 11.9896 9.0715 11.8168 9.04269C11.7941 9.55886 11.6803 10.0668 11.4807 10.5428C11.2045 10.2827 10.9126 10.0401 10.6066 9.81643C10.6226 9.68894 10.631 9.56061 10.6318 9.43211V8.48229H10.6822C11.3832 8.62281 12.1816 8.87509 12.3631 9.1155C12.3749 9.12735 12.4001 9.1646 12.3766 9.19338C12.3867 9.18491 12.4102 9.17306 12.4102 9.15105V8.59742C12.3922 8.55966 12.3657 8.52663 12.3329 8.50092C12.2857 7.88563 12.1237 7.28481 11.8555 6.72996C11.8 6.71472 11.2621 6.66562 11.2336 6.66562C11.5135 7.14869 11.6963 7.68258 11.7715 8.2368C11.4197 8.11206 11.0589 8.0147 10.6923 7.94558C10.6702 7.93985 10.6478 7.93589 10.6251 7.93373V6.30669C11.0566 6.38012 11.4761 6.51226 11.8723 6.69949C11.9194 6.72827 11.9009 6.75028 11.8824 6.75536C11.9127 6.7452 11.9295 6.71642 11.916 6.69272C11.9026 6.66901 11.6269 6.16448 11.6168 6.15093C11.5712 6.11701 11.5222 6.08807 11.4706 6.06458C11.0565 5.46065 10.511 4.95989 9.87571 4.60047C9.24038 4.24104 8.53198 4.03245 7.80449 3.99057V1.8336L7.79945 1.8319ZM5.40414 6.4032H5.04611C5.0333 6.37332 5.02807 6.3407 5.03088 6.30828C5.03369 6.27586 5.04445 6.24465 5.06221 6.21746C5.07996 6.19027 5.10414 6.16794 5.13258 6.15249C5.16101 6.13704 5.19282 6.12896 5.22513 6.12896C5.25744 6.12896 5.28924 6.13704 5.31768 6.15249C5.34612 6.16794 5.3703 6.19027 5.38805 6.21746C5.4058 6.24465 5.41657 6.27586 5.41937 6.30828C5.42218 6.3407 5.41695 6.37332 5.40414 6.4032ZM7.52714 10.7324C7.63178 10.7284 7.73061 10.6829 7.80209 10.6059C7.87356 10.5288 7.91189 10.4264 7.90871 10.321V9.77749H7.14558V10.3328C7.14463 10.4368 7.18395 10.537 7.25519 10.6123C7.32644 10.6875 7.42399 10.7318 7.52714 10.7358V10.7324ZM7.72381 9.89601C7.7415 9.89567 7.75889 9.90064 7.77376 9.9103C7.78863 9.91995 7.8003 9.93384 7.8073 9.95021C7.81431 9.96657 7.81631 9.98467 7.81306 10.0022C7.80982 10.0197 7.80147 10.0358 7.78908 10.0486C7.77669 10.0613 7.76083 10.07 7.7435 10.0736C7.72617 10.0772 7.70817 10.0755 7.6918 10.0688C7.67542 10.062 7.66141 10.0505 7.65154 10.0358C7.64167 10.021 7.6364 10.0036 7.6364 9.98573C7.63684 9.96268 7.64624 9.94073 7.66259 9.92458C7.67893 9.90843 7.70091 9.89938 7.72381 9.89939V9.89601ZM7.72381 10.2939C7.73521 10.2939 7.74649 10.2962 7.75701 10.3006C7.76752 10.3051 7.77705 10.3116 7.78503 10.3198C7.79301 10.328 7.79929 10.3377 7.8035 10.3484C7.80771 10.359 7.80976 10.3704 7.80954 10.3819C7.80953 10.3994 7.80436 10.4165 7.79468 10.431C7.785 10.4455 7.77125 10.4568 7.75518 10.4634C7.73911 10.47 7.72145 10.4717 7.70445 10.4681C7.68745 10.4646 7.67188 10.456 7.65973 10.4435C7.64757 10.4311 7.63938 10.4152 7.6362 10.398C7.63302 10.3808 7.63499 10.3631 7.64186 10.347C7.64874 10.331 7.6602 10.3174 7.6748 10.3079C7.68939 10.2984 7.70645 10.2935 7.72381 10.2939ZM7.52714 10.0958C7.54541 10.101 7.56148 10.1121 7.57292 10.1274C7.58435 10.1427 7.59054 10.1613 7.59054 10.1804C7.59054 10.1996 7.58435 10.2182 7.57292 10.2335C7.56148 10.2487 7.54541 10.2598 7.52714 10.2651C7.50888 10.2598 7.49281 10.2487 7.48137 10.2335C7.46993 10.2182 7.46374 10.1996 7.46374 10.1804C7.46374 10.1613 7.46993 10.1427 7.48137 10.1274C7.49281 10.1121 7.50888 10.101 7.52714 10.0958ZM7.33216 9.89601C7.3499 9.89533 7.36745 9.90001 7.38253 9.90945C7.39762 9.91889 7.40956 9.93266 7.41682 9.94899C7.42408 9.96531 7.42633 9.98345 7.42329 10.0011C7.42024 10.0187 7.41203 10.035 7.39971 10.0479C7.3874 10.0608 7.37154 10.0697 7.35417 10.0734C7.33681 10.0772 7.31872 10.0756 7.30225 10.0689C7.28577 10.0622 7.27166 10.0507 7.26171 10.0359C7.25176 10.0211 7.24644 10.0036 7.24643 9.98573C7.24686 9.96297 7.25603 9.94126 7.27201 9.92516C7.288 9.90906 7.30955 9.89982 7.33216 9.89939V9.89601ZM7.24643 10.3819C7.24271 10.3688 7.24207 10.355 7.24454 10.3416C7.24702 10.3282 7.25255 10.3156 7.26069 10.3047C7.26884 10.2938 7.27938 10.285 7.29149 10.2789C7.3036 10.2729 7.31694 10.2697 7.33047 10.2697C7.344 10.2697 7.35735 10.2729 7.36945 10.2789C7.38156 10.285 7.39211 10.2938 7.40025 10.3047C7.4084 10.3156 7.41393 10.3282 7.41641 10.3416C7.41888 10.355 7.41824 10.3688 7.41452 10.3819C7.41824 10.395 7.41888 10.4088 7.41641 10.4222C7.41393 10.4356 7.4084 10.4482 7.40025 10.4591C7.39211 10.47 7.38156 10.4788 7.36945 10.4849C7.35735 10.491 7.344 10.4941 7.33047 10.4941C7.31694 10.4941 7.3036 10.491 7.29149 10.4849C7.27938 10.4788 7.26884 10.47 7.26069 10.4591C7.25255 10.4482 7.24702 10.4356 7.24454 10.4222C7.24207 10.4088 7.24271 10.395 7.24643 10.3819ZM6.85478 8.98513V8.43319H6.09164V8.98513C6.08665 9.03864 6.0928 9.0926 6.10971 9.14357C6.12661 9.19454 6.1539 9.24138 6.18982 9.28112C6.22573 9.32086 6.26949 9.3526 6.31829 9.37432C6.36709 9.39604 6.41986 9.40726 6.47321 9.40726C6.52656 9.40726 6.57932 9.39604 6.62812 9.37432C6.67692 9.3526 6.72068 9.32086 6.7566 9.28112C6.79252 9.24138 6.8198 9.19454 6.83671 9.14357C6.85361 9.0926 6.85977 9.03864 6.85478 8.98513ZM6.66819 8.56186C6.6856 8.56803 6.70068 8.57948 6.71134 8.59464C6.72201 8.60981 6.72773 8.62794 6.72773 8.64652C6.72773 8.6651 6.72201 8.68323 6.71134 8.69839C6.70068 8.71356 6.6856 8.72501 6.66819 8.73117C6.65079 8.72501 6.63571 8.71356 6.62505 8.69839C6.61438 8.68323 6.60865 8.6651 6.60865 8.64652C6.60865 8.62794 6.61438 8.60981 6.62505 8.59464C6.63571 8.57948 6.65079 8.56803 6.66819 8.56186ZM6.66819 8.95804C6.69137 8.95804 6.71361 8.96732 6.73 8.98383C6.74639 9.00034 6.7556 9.02273 6.7556 9.04608C6.75583 9.0577 6.75373 9.06926 6.74942 9.08005C6.7451 9.09083 6.73867 9.10063 6.73051 9.10885C6.72235 9.11707 6.71262 9.12355 6.70191 9.12789C6.6912 9.13224 6.67973 9.13435 6.66819 9.13412C6.64501 9.13412 6.62278 9.12484 6.60639 9.10833C6.59 9.09182 6.58079 9.06943 6.58079 9.04608C6.58206 9.02346 6.59177 9.00217 6.60798 8.98647C6.6242 8.97077 6.6457 8.96182 6.66819 8.96143V8.95804ZM6.27822 9.12735C6.25504 9.12735 6.23281 9.11807 6.21641 9.10156C6.20002 9.08505 6.19081 9.06266 6.19081 9.03931C6.19124 9.0161 6.20059 8.99395 6.21689 8.97754C6.23319 8.96112 6.25518 8.9517 6.27822 8.95127C6.30111 8.95171 6.32291 8.96119 6.33894 8.97765C6.35497 8.99411 6.36395 9.01625 6.36395 9.03931C6.36564 9.0516 6.36468 9.06412 6.36114 9.07601C6.35759 9.08789 6.35155 9.09887 6.34341 9.10819C6.33528 9.11751 6.32524 9.12495 6.31399 9.13001C6.30274 9.13507 6.29054 9.13762 6.27822 9.1375V9.12735ZM6.27822 8.73287C6.26082 8.7267 6.24574 8.71524 6.23507 8.70008C6.22441 8.68491 6.21868 8.6668 6.21868 8.64821C6.21868 8.62963 6.22441 8.6115 6.23507 8.59634C6.24574 8.58117 6.26082 8.56972 6.27822 8.56356C6.29563 8.56972 6.3107 8.58117 6.32137 8.59634C6.33204 8.6115 6.33776 8.62963 6.33776 8.64821C6.33776 8.6668 6.33204 8.68491 6.32137 8.70008C6.3107 8.71524 6.29563 8.7267 6.27822 8.73287ZM6.38748 8.84291C6.38703 8.83143 6.38886 8.81998 6.39286 8.80922C6.39686 8.79846 6.40296 8.78861 6.41079 8.78026C6.41861 8.7719 6.42802 8.7652 6.43845 8.76055C6.44888 8.7559 6.46012 8.7534 6.47153 8.75318C6.49516 8.75318 6.51781 8.76263 6.53452 8.77946C6.55123 8.79629 6.56062 8.81911 6.56062 8.84291C6.5604 8.85447 6.55792 8.86588 6.55332 8.87647C6.54873 8.88707 6.5421 8.89666 6.53383 8.90467C6.52556 8.91269 6.5158 8.91899 6.50511 8.92321C6.49442 8.92743 6.48301 8.92948 6.47153 8.92926C6.45062 8.92936 6.43042 8.92161 6.41488 8.90753C6.39934 8.89344 6.38957 8.87402 6.38748 8.85307V8.84291ZM5.40414 8.80228H5.04611C5.0333 8.7724 5.02807 8.73978 5.03088 8.70736C5.03369 8.67494 5.04445 8.64373 5.06221 8.61654C5.07996 8.58935 5.10414 8.56703 5.13258 8.55158C5.16101 8.53613 5.19282 8.52804 5.22513 8.52804C5.25744 8.52804 5.28924 8.53613 5.31768 8.55158C5.34612 8.56703 5.3703 8.58935 5.38805 8.61654C5.4058 8.64373 5.41657 8.67494 5.41937 8.70736C5.42218 8.73978 5.41695 8.7724 5.40414 8.80228ZM5.81429 10.9762C5.8673 10.9523 5.92641 10.9456 5.98336 10.9571C6.04031 10.9687 6.09226 10.9978 6.13198 11.0405L5.87984 11.2996C5.83857 11.2603 5.81018 11.2092 5.79847 11.1533C5.78675 11.0973 5.79227 11.0391 5.81429 10.9863V10.9762Z" fill="white"/>
</svg>
