<svg width="97" height="24" viewBox="0 0 97 24" fill="none" xmlns="http://www.w3.org/2000/svg">
<path d="M0 24H35.9651V0H0V24ZM11.8275 17.4231L11.0051 16.8014L10.1661 17.4231L10.4978 16.4173L9.65065 15.7789H10.6898L11.0051 14.7979L11.3121 15.7789H12.3539L11.515 16.4173L11.8275 17.4231ZM27.4002 11.62L26.5585 12.2556L26.8847 13.2615L26.0622 12.6425L25.226 13.2615L25.555 12.2556L24.7079 11.62H25.7469L26.0622 10.639L26.3693 11.62H27.4002ZM24.6229 7.59655L24.9382 6.61554L25.2452 7.59655H26.2871L25.4481 8.23213L25.7744 9.24076L24.9382 8.62176L24.1157 9.24076L24.4447 8.23213L23.5975 7.59655H24.6229ZM24.6229 15.7679L24.9382 14.7869L25.2452 15.7679H26.2871L25.4481 16.4035L25.7744 17.4093L24.9382 16.7903L24.1157 17.4093L24.4447 16.4035L23.5975 15.7679H24.6229ZM21.6591 4.61209L21.9744 3.63109L22.2842 4.61209H23.3261L22.4871 5.24767L22.8106 6.25354L21.9881 5.63455L21.1656 6.25354L21.4974 5.24767L20.6502 4.61209H21.6591ZM21.6591 18.7054L21.9744 17.7244L22.2842 18.7054H23.3261L22.4871 19.3409L22.8106 20.3468L21.9881 19.7278L21.1656 20.3468L21.4974 19.3409L20.6502 18.7054H21.6591ZM18.8215 21.4273L17.999 20.8055L17.1765 21.4273L17.5055 20.4187L16.6584 19.7831H17.6974L18.0127 18.8021L18.3198 19.7831H19.3616L18.5227 20.4187L18.8215 21.4273ZM17.6234 3.53714L17.9387 2.55613L18.2458 3.53714H19.2903L18.4486 4.17271L18.7749 5.17859L17.9387 4.55959L17.1162 5.17859L17.4452 4.17271L16.598 3.53714H17.6234ZM14.7474 20.3579L13.9249 19.7389L13.0887 20.3579L13.4177 19.352L12.5705 18.7164H13.5959L13.9112 17.7354L14.2183 18.7164H15.2628L14.4212 19.352L14.7474 20.3579ZM13.5548 4.60657L13.8701 3.62557L14.1771 4.60657H15.2217L14.38 5.24214L14.7063 6.24802L13.8838 5.62902L13.0613 6.24802L13.3903 5.24214L12.5431 4.60657H13.5548ZM10.676 7.59102L10.9913 6.61002L11.2984 7.59102H12.3402L11.5013 8.2266L11.8275 9.23524L11.0051 8.61347L10.1661 9.23524L10.4978 8.2266L9.65065 7.59102H10.676ZM9.60403 11.6145L9.91933 10.6335L10.2264 11.6145H11.271L10.432 12.2501L10.7583 13.256L9.91933 12.637L9.09683 13.256L9.42585 12.2501L8.57865 11.6145H9.60403ZM42.1722 6.32816H41.0509V0.909156H44.8892V1.86528H42.1476V3.11986H44.5767V4.06495H42.1832L42.1722 6.32816ZM46.6247 1.82108H45.5664V0.851127H46.6247V1.82108ZM46.6247 6.32816H45.5664V2.32125H46.6247V6.32816ZM48.6892 6.32816H47.6446V2.32954H48.6535V2.91538C48.7548 2.7457 48.8836 2.59438 49.0346 2.46771C49.2747 2.29736 49.5639 2.21186 49.8571 2.22453C50.2211 2.21007 50.5783 2.32555 50.866 2.55061C51.0076 2.69068 51.1163 2.86091 51.1842 3.04883C51.252 3.23675 51.2773 3.43758 51.2581 3.63662V6.3475H50.1889V3.89914C50.1965 3.73179 50.1675 3.5648 50.1039 3.41002C50.0487 3.30584 49.9639 3.22068 49.8603 3.16552C49.7567 3.11036 49.6391 3.08772 49.5227 3.10052C49.3698 3.08832 49.2171 3.12572 49.0869 3.20727C48.9566 3.28881 48.8557 3.41021 48.7989 3.55372C48.7246 3.74928 48.6901 3.95791 48.6974 4.16719L48.6892 6.32816ZM54.2191 3.78584C54.0852 3.83633 53.9449 3.86795 53.8024 3.8798L53.4432 3.92401C53.1228 3.95018 52.8102 4.03739 52.522 4.181C52.3358 4.28766 52.1833 4.44513 52.0819 4.63529C51.9805 4.82545 51.9345 5.04059 51.949 5.25596C51.9391 5.42083 51.966 5.58584 52.0276 5.73887C52.0893 5.8919 52.1842 6.02905 52.3054 6.14024C52.5565 6.35482 52.8785 6.4663 53.2074 6.45251C53.4753 6.45794 53.7397 6.39014 53.9724 6.25631C54.1585 6.14866 54.3276 6.01361 54.4741 5.85561C54.4741 5.94681 54.4905 6.02694 54.5042 6.09879C54.5174 6.17752 54.5395 6.25448 54.57 6.32816H55.7051V6.17341C55.6438 6.14658 55.5908 6.10363 55.5516 6.04905C55.5071 5.96404 55.4853 5.86879 55.4885 5.77272C55.4885 5.59033 55.4885 5.43558 55.4885 5.30847V3.45976C55.5092 3.26231 55.4715 3.06311 55.3803 2.88713C55.2891 2.71114 55.1484 2.5662 54.9758 2.47047C54.6118 2.29059 54.2105 2.20061 53.8051 2.20795C53.1307 2.20795 52.6545 2.38573 52.3767 2.74128C52.1941 2.99393 52.0918 3.2965 52.0834 3.60899H53.0758C53.0929 3.47433 53.1449 3.34659 53.2266 3.23869C53.2959 3.17049 53.3792 3.11854 53.4707 3.08654C53.5622 3.05453 53.6595 3.04327 53.7558 3.05355C53.9298 3.04441 54.1035 3.07659 54.263 3.1475C54.3212 3.18201 54.3685 3.23263 54.3991 3.29336C54.4297 3.35409 54.4424 3.42238 54.4357 3.49016C54.439 3.55937 54.4196 3.62774 54.3804 3.68469C54.3413 3.74164 54.2846 3.78399 54.2191 3.80519V3.78584ZM54.4412 4.76132C54.4535 4.8978 54.4328 5.03526 54.3807 5.16187C54.3287 5.28847 54.2469 5.40042 54.1424 5.48809C53.9578 5.61915 53.7375 5.68961 53.5118 5.68982C53.3791 5.69319 53.2493 5.65023 53.1444 5.56823C53.0908 5.5197 53.0492 5.45917 53.023 5.39149C52.9968 5.32382 52.9867 5.2509 52.9936 5.17859C52.989 5.08817 53.0097 4.99827 53.0534 4.91913C53.097 4.83998 53.1618 4.77478 53.2403 4.73092C53.3921 4.65884 53.5539 4.61038 53.7201 4.58722L53.9587 4.54301C54.0517 4.52617 54.1434 4.50216 54.2328 4.47116C54.3038 4.44437 54.3718 4.4101 54.4357 4.36892L54.4412 4.76132ZM57.457 6.32816H56.4125V2.32954H57.4241V2.91538C57.5254 2.74651 57.6532 2.59532 57.8025 2.46771C58.0425 2.29736 58.3317 2.21186 58.625 2.22453C58.9889 2.20959 59.3464 2.32512 59.6339 2.55061C59.7761 2.69021 59.8853 2.86037 59.9532 3.04842C60.021 3.23646 60.0459 3.43753 60.026 3.63662V6.3475H58.9567V3.89914C58.965 3.732 58.937 3.56506 58.8745 3.41002C58.8188 3.30562 58.7335 3.22036 58.6294 3.16521C58.5254 3.11006 58.4074 3.08752 58.2905 3.10052C58.1378 3.08919 57.9855 3.12696 57.8554 3.20839C57.7254 3.28982 57.6243 3.41073 57.5667 3.55372C57.4924 3.74928 57.4579 3.95791 57.4652 4.16719L57.457 6.32816ZM62.636 6.46356C61.9945 6.46356 61.5201 6.27289 61.2186 5.88878C60.9003 5.4583 60.7395 4.93012 60.7635 4.39379C60.7279 3.81278 60.9065 3.239 61.2652 2.78273C61.4395 2.58888 61.6544 2.43652 61.8943 2.33663C62.1343 2.23675 62.3932 2.19185 62.6525 2.20518C63.0879 2.18646 63.5183 2.3053 63.8835 2.54508C64.2015 2.77168 64.3898 3.17145 64.4482 3.74439H63.379C63.3616 3.59881 63.3099 3.45954 63.2282 3.33817C63.1637 3.25536 63.0799 3.18986 62.9842 3.14745C62.8886 3.10504 62.7841 3.08702 62.6799 3.09499C62.5183 3.08831 62.3592 3.13679 62.2283 3.23257C62.0975 3.32836 62.0025 3.46586 61.9588 3.6228C61.8806 3.86333 61.8453 4.11596 61.8547 4.36892C61.8456 4.6101 61.8809 4.85089 61.9588 5.0791C62.003 5.2306 62.0966 5.36265 62.2245 5.45392C62.3523 5.54518 62.507 5.59032 62.6634 5.58204C62.7596 5.59173 62.8567 5.5788 62.9471 5.54428C63.0375 5.50975 63.1187 5.45458 63.1843 5.38308C63.2929 5.23056 63.3574 5.05075 63.3708 4.86356H64.4373C64.4091 5.19284 64.2905 5.50769 64.0946 5.77272C63.9297 6.0072 63.7082 6.19546 63.4511 6.31972C63.194 6.44398 62.9097 6.50014 62.625 6.48291L62.636 6.46356ZM66.2386 1.82108H65.1775V0.851127H66.2358L66.2386 1.82108ZM66.2386 6.32816H65.1775V2.32125H66.2358L66.2386 6.32816ZM69.2544 3.78584C69.1194 3.83592 68.9783 3.86752 68.8349 3.8798L68.4785 3.92401C68.1573 3.95062 67.8439 4.0378 67.5546 4.181C67.3689 4.28803 67.2169 4.44565 67.116 4.63579C67.0151 4.82592 66.9695 5.04087 66.9843 5.25596C66.974 5.42062 67.0005 5.5855 67.0617 5.73851C67.1229 5.89153 67.2173 6.02879 67.338 6.14024C67.5893 6.35434 67.9112 6.46576 68.24 6.45251C68.5087 6.45748 68.7738 6.38973 69.0076 6.25631C69.1934 6.14935 69.3617 6.0142 69.5066 5.85561C69.5066 5.94681 69.5258 6.02694 69.5368 6.09879C69.5525 6.17691 69.5745 6.25362 69.6026 6.32816H70.7404V6.17341C70.6788 6.14578 70.625 6.10303 70.5841 6.04905C70.5411 5.96357 70.5204 5.86849 70.5238 5.77272C70.5238 5.58849 70.5238 5.43374 70.5238 5.30847V3.45976C70.5452 3.26222 70.5078 3.06274 70.4166 2.88661C70.3253 2.71048 70.1842 2.56564 70.0111 2.47047C69.648 2.29061 69.2476 2.20062 68.8431 2.20795C68.166 2.20795 67.6917 2.3848 67.4147 2.74128C67.23 2.99303 67.1266 3.29598 67.1186 3.60899H68.1276C68.1437 3.47456 68.1947 3.34681 68.2756 3.23869C68.3454 3.17043 68.4292 3.11846 68.5211 3.08647C68.613 3.05447 68.7108 3.04324 68.8075 3.05355C68.9815 3.04472 69.1552 3.07689 69.3147 3.1475C69.373 3.18201 69.4202 3.23263 69.4508 3.29336C69.4814 3.35409 69.4941 3.42238 69.4874 3.49016C69.4891 3.56176 69.4667 3.63185 69.4239 3.68903C69.3811 3.74621 69.3204 3.78714 69.2516 3.80519L69.2544 3.78584ZM69.4737 4.76132C69.4875 4.89793 69.4674 5.03586 69.4153 5.16271C69.3631 5.28956 69.2805 5.40137 69.1749 5.48809C68.9903 5.61915 68.7701 5.68961 68.5443 5.68982C68.4117 5.69274 68.282 5.64983 68.1769 5.56823C68.1238 5.5193 68.0826 5.45871 68.0564 5.39114C68.0303 5.32357 68.0199 5.25084 68.0261 5.17859C68.0216 5.08817 68.0423 4.99827 68.0859 4.91913C68.1295 4.83998 68.1943 4.77478 68.2729 4.73092C68.4257 4.65893 68.5883 4.61048 68.7554 4.58722L68.9912 4.54301C69.0843 4.52633 69.176 4.50231 69.2654 4.47116C69.3352 4.44376 69.4023 4.40952 69.4655 4.36892L69.4737 4.76132ZM72.8158 6.47185C73.0635 6.48138 73.3093 6.42516 73.5286 6.30881C73.7382 6.1802 73.9132 6.00183 74.0386 5.7893V6.34197H75.053V0.909156H73.992V2.82971C73.8796 2.64442 73.7219 2.49125 73.5341 2.3848C73.3372 2.27499 73.1149 2.21969 72.8898 2.22453C72.6487 2.2163 72.409 2.26557 72.1904 2.36833C71.9717 2.47109 71.7802 2.62444 71.6314 2.81589C71.2941 3.28596 71.1275 3.85876 71.1598 4.438C71.1379 4.96875 71.3084 5.48938 71.6396 5.90259C71.7796 6.08157 71.9584 6.22591 72.1623 6.32457C72.3661 6.42324 72.5897 6.47362 72.8158 6.47185ZM72.4512 3.49292C72.5218 3.37881 72.6219 3.28617 72.7406 3.22485C72.8594 3.16353 72.9925 3.13584 73.1256 3.14473C73.3182 3.14193 73.5053 3.20968 73.652 3.33541C73.7869 3.47373 73.8899 3.64022 73.9539 3.82311C74.0178 4.006 74.0411 4.20082 74.0221 4.39379C74.0355 4.69738 73.9551 4.99768 73.7919 5.2532C73.7168 5.36183 73.6154 5.44933 73.4974 5.50737C73.3793 5.5654 73.2485 5.59206 73.1174 5.58481C72.9878 5.5929 72.8583 5.56622 72.7422 5.50748C72.6262 5.44875 72.5276 5.36005 72.4566 5.25043C72.2987 4.98187 72.2224 4.67247 72.2373 4.36062C72.2249 4.05744 72.2971 3.75682 72.4457 3.49292H72.4512ZM77.7974 6.48291C78.084 6.50469 78.3717 6.45941 78.638 6.35059C78.9043 6.24177 79.1421 6.07237 79.3327 5.85561C79.6599 5.42014 79.8369 4.88888 79.8369 4.34267C79.8369 3.79645 79.6599 3.26519 79.3327 2.82971C78.9248 2.42067 78.3728 2.19104 77.7974 2.19104C77.222 2.19104 76.67 2.42067 76.2621 2.82971C75.9319 3.26388 75.753 3.79564 75.753 4.34267C75.753 4.88969 75.9319 5.42145 76.2621 5.85561C76.4521 6.0716 76.689 6.24054 76.9543 6.34933C77.2197 6.45811 77.5063 6.50382 77.7919 6.48291H77.7974ZM77.0873 3.40726C77.1705 3.29957 77.2782 3.21369 77.4014 3.15692C77.5245 3.10015 77.6594 3.07417 77.7947 3.08118C77.9292 3.07342 78.0636 3.0991 78.186 3.15596C78.3084 3.21282 78.415 3.29911 78.4965 3.40726C78.6581 3.69109 78.7432 4.01264 78.7432 4.3399C78.7432 4.66716 78.6581 4.98871 78.4965 5.27254C78.4153 5.3812 78.3088 5.46803 78.1864 5.52538C78.064 5.58273 77.9295 5.60883 77.7947 5.60139C77.659 5.60976 77.5234 5.58411 77.3999 5.52672C77.2765 5.46933 77.1691 5.382 77.0873 5.27254C76.9257 4.98871 76.8407 4.66716 76.8407 4.3399C76.8407 4.01264 76.9257 3.69109 77.0873 3.40726ZM83.6673 5.83351C83.7576 5.98128 83.8726 6.11217 84.0073 6.22038C84.2386 6.38691 84.5182 6.47146 84.8023 6.4608C85.0356 6.46808 85.2674 6.42216 85.4806 6.32646C85.6938 6.23075 85.8827 6.08775 86.0333 5.90812C86.381 5.44404 86.5505 4.8689 86.5104 4.28878C86.5506 3.73403 86.3757 3.18519 86.0224 2.75786C85.8713 2.59124 85.6869 2.4588 85.4813 2.36925C85.2758 2.2797 85.0537 2.23508 84.8298 2.23834C84.5327 2.23525 84.2431 2.33254 84.0073 2.51468C83.8651 2.63208 83.7428 2.77209 83.6454 2.92919V2.33506H82.6447V7.94473H83.6783L83.6673 5.83351ZM83.7413 3.69465C83.7934 3.52727 83.8993 3.3821 84.0422 3.28204C84.1852 3.18198 84.3571 3.13271 84.5309 3.14198C84.6671 3.13132 84.8036 3.159 84.9251 3.22195C85.0466 3.28489 85.1484 3.38062 85.2191 3.49845C85.3623 3.76448 85.4359 4.06289 85.433 4.36554C85.4302 4.66819 85.3509 4.96511 85.2027 5.22833C85.1287 5.33868 85.0278 5.42795 84.9097 5.4875C84.7915 5.54704 84.6601 5.57485 84.5282 5.56823C84.3403 5.57223 84.1564 5.51398 84.0045 5.40242C83.8691 5.27954 83.7645 5.12609 83.6992 4.95462C83.6339 4.78315 83.6098 4.59854 83.6289 4.41589C83.6241 4.17046 83.6631 3.92617 83.7441 3.69465H83.7413ZM90.5407 2.99827C90.3706 2.73779 90.1312 2.53091 89.8498 2.40138C89.5528 2.27295 89.2324 2.20893 88.9093 2.21347C88.6464 2.20194 88.3839 2.24505 88.1382 2.34013C87.8924 2.43521 87.6687 2.58022 87.4809 2.76615C87.288 2.98346 87.1402 3.23743 87.046 3.51314C86.9519 3.78885 86.9133 4.08074 86.9326 4.37168C86.9326 5.10858 87.1355 5.6456 87.5413 5.98274C87.9385 6.30795 88.436 6.48292 88.9477 6.47738C89.2252 6.49365 89.5028 6.44978 89.762 6.34872C90.0212 6.24766 90.2558 6.09176 90.4502 5.89154C90.6537 5.69637 90.7901 5.44078 90.8395 5.16201H89.773C89.7024 5.31105 89.5886 5.43497 89.4466 5.51738C89.3047 5.59978 89.1412 5.63679 88.9779 5.62349C88.7758 5.6296 88.5762 5.57787 88.4022 5.47427C88.2657 5.3806 88.1554 5.2531 88.0819 5.10404C88.0084 4.95498 87.9743 4.78937 87.9827 4.62315H90.8916C90.9009 4.35648 90.8899 4.0895 90.8587 3.82453C90.8171 3.52857 90.7093 3.24602 90.5434 2.99827H90.5407ZM88.0101 3.93507C88.0338 3.70294 88.1298 3.48433 88.2843 3.31054C88.3674 3.23123 88.4657 3.16996 88.5732 3.13051C88.6807 3.09105 88.7951 3.07427 88.9093 3.08118C89.1356 3.07401 89.3564 3.15181 89.529 3.29948C89.6148 3.38136 89.6833 3.47986 89.7304 3.58908C89.7775 3.69829 89.8023 3.81598 89.8031 3.93507H88.0101ZM92.4872 6.3475H91.4591V0.903632H92.5037L92.4872 6.3475ZM96.8382 6.07116C96.7937 5.98614 96.772 5.89089 96.7752 5.79482C96.7752 5.61059 96.7752 5.45585 96.7752 5.33057V3.48187C96.7964 3.28466 96.7594 3.08552 96.6686 2.9095C96.5779 2.73347 96.4376 2.58842 96.2653 2.49258C95.9011 2.313 95.4999 2.22303 95.0946 2.23005C94.4201 2.23005 93.944 2.40783 93.6662 2.76339C93.4824 3.01546 93.38 3.31838 93.3728 3.63109H94.379C94.3951 3.49667 94.4462 3.36892 94.527 3.2608C94.5968 3.19254 94.6806 3.14057 94.7725 3.10858C94.8644 3.07659 94.9622 3.06534 95.0589 3.07565C95.2329 3.06682 95.4066 3.09899 95.5661 3.1696C95.6244 3.20412 95.6716 3.25474 95.7022 3.31546C95.7328 3.37619 95.7455 3.44449 95.7388 3.51227C95.738 3.57972 95.7157 3.64512 95.6752 3.69884C95.6348 3.75257 95.5783 3.79178 95.514 3.81071C95.38 3.86087 95.2398 3.89247 95.0973 3.90466L94.7381 3.94888C94.4169 3.97549 94.1035 4.06267 93.8142 4.20587C93.6285 4.3129 93.4765 4.47053 93.3756 4.66067C93.2748 4.8508 93.2291 5.06574 93.2439 5.28083C93.2337 5.44549 93.2601 5.61037 93.3213 5.76339C93.3825 5.9164 93.4769 6.05367 93.5976 6.16512C93.8492 6.37875 94.1709 6.49009 94.4996 6.47738C94.7683 6.48235 95.0334 6.4146 95.2673 6.28118C95.4534 6.17353 95.6225 6.03848 95.769 5.88048C95.769 5.97167 95.7854 6.05181 95.7964 6.12366C95.8121 6.20178 95.8342 6.27849 95.8622 6.35303H97V6.19828C96.9346 6.16778 96.8794 6.11882 96.841 6.05734L96.8382 6.07116ZM95.7279 4.78343C95.7413 4.92028 95.7208 5.05835 95.6682 5.18522C95.6155 5.31209 95.5324 5.42377 95.4263 5.51019C95.2417 5.64126 95.0215 5.71171 94.7957 5.71192C94.6638 5.71534 94.5349 5.67234 94.4311 5.59033C94.3774 5.5418 94.3359 5.48127 94.3097 5.4136C94.2835 5.34592 94.2734 5.273 94.2803 5.20069C94.2757 5.11027 94.2964 5.02038 94.34 4.94124C94.3837 4.86209 94.4484 4.79688 94.527 4.75303C94.6787 4.68074 94.8405 4.63228 95.0068 4.60933L95.2426 4.56512C95.3357 4.54844 95.4274 4.52441 95.5168 4.49327C95.5875 4.4659 95.6555 4.43166 95.7197 4.39102L95.7279 4.78343ZM44.2367 9.98135H45.3992V13.325C45.4209 13.7924 45.3267 14.2578 45.125 14.6791C44.7924 15.2668 44.159 15.5615 43.225 15.5634C42.2929 15.5634 41.6568 15.2677 41.3223 14.6791C41.1207 14.2578 41.0264 13.7924 41.0482 13.325V9.97859H42.1942V13.3223C42.1759 13.6051 42.2208 13.8884 42.3258 14.1513C42.4629 14.4553 42.759 14.61 43.2168 14.61C43.6747 14.61 43.968 14.4553 44.1051 14.1513C44.2101 13.8884 44.2551 13.6051 44.2367 13.3223V9.98135ZM48.9277 15.428V12.9658C48.9361 12.7993 48.9071 12.633 48.8427 12.4794C48.7876 12.3753 48.7027 12.2901 48.5992 12.235C48.4956 12.1798 48.3779 12.1572 48.2615 12.1699C48.1087 12.1582 47.9562 12.1958 47.826 12.2773C47.6959 12.3587 47.5949 12.4799 47.5377 12.6231C47.4634 12.8187 47.4289 13.0273 47.4363 13.2366V15.4169H46.3917V11.4045H47.4034V11.9931C47.5046 11.8242 47.6324 11.673 47.7817 11.5454C48.021 11.3737 48.3107 11.2881 48.6042 11.3023C48.9683 11.2861 49.3262 11.4018 49.6131 11.6283C49.7547 11.7684 49.8634 11.9386 49.9313 12.1266C49.9991 12.3145 50.0244 12.5153 50.0052 12.7143V15.4252L48.9277 15.428ZM50.984 11.4017H52.0422V15.4252H50.984V11.4017ZM52.0422 10.9209H50.984V9.94819H52.0422V10.9209ZM55.3076 14.9554C55.3076 15.0466 55.324 15.1268 55.335 15.1986C55.3505 15.2771 55.3734 15.3539 55.4035 15.428H56.5386V15.2705C56.4769 15.2455 56.4236 15.2033 56.385 15.1489C56.3405 15.0639 56.3188 14.9686 56.322 14.8725C56.322 14.6902 56.322 14.5354 56.322 14.4055V12.5596C56.3432 12.3624 56.3061 12.1632 56.2154 11.9872C56.1247 11.8112 55.9843 11.6661 55.812 11.5703C55.4479 11.3907 55.0467 11.3007 54.6413 11.3078C53.9669 11.3078 53.4907 11.4846 53.2129 11.8383C53.0291 12.0914 52.9268 12.3952 52.9196 12.7088H53.9257C53.9413 12.5743 53.9925 12.4464 54.0738 12.3385C54.1436 12.2703 54.2274 12.2183 54.3193 12.1863C54.4112 12.1543 54.509 12.1431 54.6057 12.1534C54.7798 12.1436 54.9537 12.1758 55.1129 12.2473C55.1712 12.2818 55.2184 12.3325 55.249 12.3932C55.2796 12.4539 55.2923 12.5222 55.2856 12.59C55.2848 12.6574 55.2625 12.7228 55.222 12.7766C55.1815 12.8303 55.125 12.8695 55.0608 12.8884C54.9262 12.936 54.7862 12.9667 54.6441 12.9796L54.2849 13.0238C53.9643 13.0507 53.6517 13.1389 53.3637 13.2836C53.1771 13.3897 53.0241 13.5471 52.9227 13.7374C52.8213 13.9277 52.7755 14.1431 52.7907 14.3586C52.7808 14.5234 52.8077 14.6884 52.8693 14.8415C52.931 14.9945 53.0259 15.1316 53.1471 15.2428C53.398 15.4558 53.7186 15.5671 54.0464 15.5551C54.3149 15.5587 54.5797 15.4911 54.814 15.3589C54.9986 15.2491 55.1658 15.1122 55.3103 14.9527L55.3076 14.9554ZM53.9779 14.6791C53.9242 14.6306 53.8826 14.57 53.8564 14.5024C53.8302 14.4347 53.8202 14.3618 53.8271 14.2895C53.8225 14.1991 53.8432 14.1091 53.8868 14.03C53.9305 13.9509 53.9952 13.8857 54.0738 13.8418C54.2251 13.7685 54.3871 13.7199 54.5536 13.6981L54.7921 13.6539C54.8852 13.6371 54.9769 13.613 55.0663 13.582C55.1371 13.5547 55.205 13.5204 55.2692 13.4798V13.8722C55.2815 14.0087 55.2608 14.1461 55.2087 14.2727C55.1567 14.3994 55.0749 14.5113 54.9703 14.599C54.7847 14.7296 54.5634 14.7991 54.337 14.7979C54.2066 14.7965 54.0806 14.7497 53.9806 14.6653L53.9779 14.6791ZM55.5625 9.85423H56.0505C56.0159 10.0884 55.9266 10.311 55.7901 10.5036C55.7224 10.5911 55.6346 10.6607 55.5343 10.7064C55.434 10.7521 55.3242 10.7726 55.2144 10.7662C55.1055 10.7602 54.9977 10.7407 54.8936 10.7081C54.8157 10.69 54.7389 10.6679 54.6633 10.6418L54.3644 10.5396C54.3252 10.5259 54.2848 10.5157 54.2438 10.5092C54.2045 10.5063 54.1651 10.5063 54.1259 10.5092C54.0434 10.5049 53.9626 10.5337 53.9011 10.5893C53.8374 10.6548 53.7937 10.7372 53.775 10.8269H53.2979C53.3327 10.6222 53.4042 10.4255 53.509 10.2466C53.6095 10.1109 53.747 10.0076 53.9047 9.94917C54.0624 9.89079 54.2336 9.87988 54.3973 9.91779C54.4523 9.92956 54.5063 9.94526 54.5591 9.96477L54.9045 10.0974L55.1047 10.1637C55.1392 10.175 55.1753 10.1806 55.2116 10.1803C55.2574 10.1853 55.3037 10.1791 55.3466 10.1622C55.3896 10.1454 55.4279 10.1184 55.4583 10.0836C55.5131 10.0125 55.5498 9.92904 55.5653 9.84042L55.5625 9.85423ZM60.5578 14.9444C60.8873 14.5105 61.0659 13.9792 61.0659 13.4328C61.0659 12.8864 60.8873 12.3552 60.5578 11.9212C60.1499 11.5122 59.5979 11.2826 59.0225 11.2826C58.4471 11.2826 57.8951 11.5122 57.4872 11.9212C57.1598 12.3561 56.9827 12.887 56.9827 13.4328C56.9827 13.9787 57.1598 14.5095 57.4872 14.9444C57.8972 15.3495 58.4484 15.5763 59.0225 15.5763C59.5966 15.5763 60.1479 15.3495 60.5578 14.9444ZM59.7353 14.3641C59.6541 14.4727 59.5476 14.5596 59.4252 14.6169C59.3028 14.6743 59.1682 14.7004 59.0335 14.6929C58.898 14.6998 58.7628 14.6735 58.6396 14.6163C58.5164 14.559 58.4089 14.4725 58.3261 14.3641C58.1645 14.0802 58.0794 13.7587 58.0794 13.4314C58.0794 13.1042 58.1645 12.7826 58.3261 12.4988C58.409 12.3907 58.5167 12.3046 58.6399 12.2478C58.7631 12.191 58.8982 12.1652 59.0335 12.1727C59.168 12.165 59.3024 12.1906 59.4248 12.2475C59.5472 12.3044 59.6538 12.3906 59.7353 12.4988C59.897 12.7826 59.982 13.1042 59.982 13.4314C59.982 13.7587 59.897 14.0802 59.7353 14.3641ZM65.1309 10.9568V12.1147H67.7547V13.0598H65.1309V14.458H68.1221V15.439H64.0288V9.97859H67.9905V10.943L65.1309 10.9568ZM71.4367 11.4128H72.495V15.4252H71.4806V14.856L71.4093 14.9665C71.3702 15.027 71.3232 15.0818 71.2695 15.1295C71.1325 15.2603 70.9714 15.3626 70.7952 15.4307C70.6188 15.491 70.4331 15.5191 70.2469 15.5136C69.6583 15.5136 69.2617 15.299 69.057 14.8698C68.9243 14.5385 68.8654 14.1819 68.8843 13.8252V11.399H69.9535V13.8252C69.9451 14.0011 69.9721 14.1769 70.033 14.342C70.0823 14.4435 70.1613 14.5273 70.2594 14.5822C70.3574 14.637 70.4698 14.6602 70.5813 14.6487C70.7328 14.6613 70.8844 14.626 71.0151 14.5477C71.1458 14.4695 71.2491 14.3522 71.3106 14.2121C71.386 14.013 71.4205 13.8005 71.4121 13.5876L71.4367 11.4128ZM74.9187 11.562C75.1355 11.391 75.4058 11.3038 75.6808 11.3161H75.7302H75.8207V12.3938C75.7625 12.3857 75.7039 12.3811 75.6452 12.38H75.5191C75.3533 12.3597 75.1852 12.388 75.035 12.4616C74.8847 12.5351 74.7587 12.6506 74.6719 12.7945C74.5788 13.0209 74.5375 13.2655 74.5513 13.5102V15.4446H73.5012V11.399H74.4964V12.1009C74.6013 11.8973 74.7363 11.7109 74.8967 11.5482L74.9187 11.562ZM79.7632 14.9444C80.0927 14.5105 80.2712 13.9792 80.2712 13.4328C80.2712 12.8864 80.0927 12.3552 79.7632 11.9212C79.3552 11.5122 78.8033 11.2826 78.2278 11.2826C77.6524 11.2826 77.1004 11.5122 76.6925 11.9212C76.363 12.3552 76.1845 12.8864 76.1845 13.4328C76.1845 13.9792 76.363 14.5105 76.6925 14.9444C77.1025 15.3495 77.6537 15.5763 78.2278 15.5763C78.802 15.5763 79.3532 15.3495 79.7632 14.9444ZM78.9407 14.3641C78.8594 14.4727 78.7529 14.5596 78.6305 14.6169C78.5081 14.6743 78.3736 14.7004 78.2388 14.6929C78.1031 14.7013 77.9675 14.6756 77.8441 14.6183C77.7206 14.5609 77.6132 14.4735 77.5315 14.3641C77.3698 14.0802 77.2848 13.7587 77.2848 13.4314C77.2848 13.1042 77.3698 12.7826 77.5315 12.4988C77.6135 12.3898 77.7211 12.303 77.8445 12.2462C77.9679 12.1893 78.1034 12.164 78.2388 12.1727C78.3734 12.165 78.5077 12.1906 78.6301 12.2475C78.7525 12.3044 78.8591 12.3906 78.9407 12.4988C79.1023 12.7826 79.1874 13.1042 79.1874 13.4314C79.1874 13.7587 79.1023 14.0802 78.9407 14.3641ZM84.3993 14.9941C84.7482 14.5295 84.9186 13.9534 84.8791 13.372C84.9181 12.8178 84.7422 12.2699 84.3884 11.8439C84.2376 11.6768 84.0533 11.5441 83.8476 11.4545C83.642 11.3649 83.4197 11.3206 83.1957 11.3244C82.8987 11.3217 82.6093 11.4189 82.3732 11.6007C82.2325 11.7196 82.1105 11.8593 82.0114 12.0152V11.4211H81.0106V17.0307H82.0443V14.9002C82.1362 15.0467 82.251 15.1774 82.3842 15.287C82.6164 15.454 82.897 15.5385 83.182 15.5275C83.4066 15.5284 83.6287 15.4799 83.8328 15.3854C84.0369 15.2909 84.2181 15.1527 84.3637 14.9803L84.3993 14.9941ZM83.5768 14.3309C83.5036 14.4412 83.4032 14.5306 83.2854 14.5901C83.1677 14.6497 83.0367 14.6775 82.9051 14.6708C82.7159 14.6757 82.5305 14.6163 82.3787 14.5022C82.2435 14.3799 82.1391 14.2269 82.0743 14.0558C82.0094 13.8847 81.986 13.7005 82.0059 13.5185C81.9972 13.2694 82.0354 13.021 82.1183 12.7862C82.1703 12.6193 82.2757 12.4745 82.4181 12.3745C82.5605 12.2744 82.7318 12.2249 82.9051 12.2335C83.0419 12.2239 83.1786 12.2523 83.3005 12.3156C83.4223 12.379 83.5245 12.4748 83.596 12.5927C83.7396 12.8588 83.8132 13.1574 83.8098 13.4602C83.8064 13.763 83.7262 14.0599 83.5768 14.3226V14.3309ZM89.2329 12.9216C89.1922 12.6241 89.0833 12.3403 88.9148 12.0926C88.7456 11.8325 88.5071 11.6256 88.2267 11.4957C87.9298 11.3673 87.6094 11.3032 87.2863 11.3078C87.0233 11.2962 86.7608 11.3394 86.5151 11.4344C86.2693 11.5295 86.0456 11.6745 85.8579 11.8605C85.6646 12.0775 85.5165 12.3314 85.4223 12.6072C85.3281 12.883 85.2898 13.175 85.3095 13.466C85.3095 14.2029 85.5134 14.7399 85.921 15.077C86.3182 15.4022 86.8157 15.5772 87.3274 15.5717C87.6048 15.5878 87.8824 15.5438 88.1416 15.4428C88.4007 15.3417 88.6354 15.1859 88.8299 14.9858C89.0332 14.7909 89.1687 14.5351 89.2164 14.2563H88.1499C88.0972 14.3616 88.0245 14.4554 87.9361 14.5326C87.7704 14.6622 87.5643 14.7278 87.3549 14.7178C87.1528 14.7239 86.9532 14.6722 86.7791 14.5686C86.6433 14.4744 86.5337 14.3467 86.4607 14.1977C86.3878 14.0487 86.3539 13.8834 86.3624 13.7174H89.2713C89.2665 13.4457 89.239 13.1749 89.189 12.9078L89.2329 12.9216ZM86.3843 13.0266C86.408 12.7945 86.504 12.5759 86.6585 12.4021C86.7407 12.3224 86.8386 12.2609 86.9457 12.2214C87.0528 12.1819 87.167 12.1654 87.2808 12.1727C87.5071 12.165 87.7282 12.2429 87.9004 12.391C87.9867 12.4725 88.0556 12.5709 88.1028 12.6802C88.1499 12.7895 88.1744 12.9074 88.1746 13.0266H86.3843ZM89.8114 11.4128H90.8696V15.4252H89.8114V11.4128ZM89.8114 9.95924H90.8696V10.932H89.8114V9.95924ZM95.2124 15.1599C95.1696 15.0743 95.148 14.9795 95.1494 14.8836C95.1494 14.7012 95.1494 14.5465 95.1494 14.4166V12.5706C95.1707 12.3731 95.1334 12.1736 95.0421 11.9975C94.9509 11.8214 94.8097 11.6765 94.6367 11.5813C94.2726 11.4015 93.8714 11.3115 93.466 11.3188C92.7915 11.3188 92.3172 11.4957 92.0376 11.8494C91.8549 12.1031 91.7526 12.4065 91.7442 12.7199H92.7532C92.7688 12.5853 92.8199 12.4574 92.9012 12.3496C92.9622 12.2833 93.036 12.2303 93.118 12.1937C93.2 12.1571 93.2886 12.1378 93.3783 12.1368C93.5515 12.1265 93.7246 12.1587 93.8827 12.2307C93.941 12.2653 93.9882 12.3159 94.0188 12.3766C94.0495 12.4373 94.0621 12.5056 94.0555 12.5734C94.0546 12.6409 94.0323 12.7063 93.9919 12.76C93.9514 12.8137 93.8949 12.8529 93.8307 12.8719C93.6961 12.9198 93.5561 12.9504 93.4139 12.963L93.0575 13.0073C92.7359 13.0338 92.4223 13.122 92.1335 13.267C91.9473 13.3737 91.7948 13.5311 91.6934 13.7213C91.592 13.9115 91.546 14.1266 91.5605 14.342C91.5506 14.5068 91.5775 14.6719 91.6392 14.8249C91.7009 14.9779 91.7958 15.1151 91.917 15.2263C92.169 15.4392 92.4903 15.5504 92.819 15.5385C93.0867 15.5426 93.3507 15.4749 93.5839 15.3423C93.77 15.2347 93.9391 15.0996 94.0856 14.9416C94.0856 15.0328 94.1021 15.113 94.1158 15.1848C94.129 15.2635 94.1511 15.3405 94.1816 15.4142H95.3166V15.2567C95.2587 15.2332 95.2077 15.1951 95.1686 15.1461L95.2124 15.1599ZM94.1158 13.8722C94.1281 14.0087 94.1074 14.1461 94.0553 14.2727C94.0033 14.3994 93.9214 14.5113 93.8169 14.599C93.632 14.7291 93.4119 14.7985 93.1864 14.7979C93.054 14.8023 92.9241 14.7603 92.819 14.6791C92.7658 14.6302 92.7246 14.5696 92.6985 14.502C92.6723 14.4345 92.662 14.3617 92.6682 14.2895C92.6636 14.1991 92.6843 14.1091 92.7279 14.03C92.7716 13.9509 92.8364 13.8857 92.9149 13.8418C93.0664 13.7689 93.2283 13.7204 93.3947 13.6981L93.6333 13.6539C93.7263 13.6371 93.818 13.613 93.9074 13.582C93.9784 13.5553 94.0464 13.521 94.1103 13.4798L94.1158 13.8722ZM44.149 18.6418H44.7576V23.4031H44.0393L41.6486 19.562V23.4031H41.0372V18.628H41.7912L44.149 22.4746V18.6418ZM48.596 21.0902C48.5637 20.8714 48.4851 20.6622 48.3657 20.4767C48.2348 20.2826 48.055 20.1271 47.8448 20.0263C47.6254 19.9144 47.3832 19.8558 47.1374 19.8549C46.9162 19.8475 46.6963 19.8907 46.494 19.9811C46.2918 20.0716 46.1124 20.207 45.9694 20.3772C45.6581 20.7578 45.4979 21.2412 45.5198 21.734C45.4905 22.216 45.65 22.6903 45.964 23.0549C46.1027 23.2079 46.2724 23.329 46.4616 23.4101C46.6508 23.4911 46.8551 23.5302 47.0606 23.5247C47.2192 23.5265 47.3774 23.5098 47.5322 23.475C47.7761 23.4209 48.0001 23.2993 48.1792 23.124C48.2899 23.0111 48.3824 22.8815 48.4534 22.7399C48.529 22.6085 48.5801 22.4643 48.6042 22.3143H48.0339C47.995 22.4641 47.9228 22.603 47.8228 22.7206C47.7324 22.821 47.6212 22.9003 47.4971 22.9528C47.373 23.0054 47.239 23.0298 47.1045 23.0245C46.9686 23.0348 46.8324 23.0109 46.708 22.9549C46.5835 22.899 46.4748 22.8127 46.3917 22.704C46.2272 22.4515 46.1421 22.1548 46.1477 21.8529H48.6508C48.6378 21.591 48.6001 21.331 48.5384 21.0763L48.596 21.0902ZM46.1531 21.3914C46.1515 21.1198 46.2491 20.8572 46.4273 20.6535C46.512 20.5625 46.615 20.4908 46.7294 20.4431C46.8438 20.3954 46.9671 20.373 47.0908 20.3772C47.2481 20.3637 47.406 20.3961 47.5455 20.4706C47.685 20.5451 47.8003 20.6585 47.8777 20.7972C47.9735 20.9861 48.0286 21.1933 48.0394 21.4052L46.1531 21.3914ZM50.9346 21.6235L52.1464 23.4031H51.4089L50.5535 22.0988L49.731 23.4031H48.999L50.2108 21.6235L49.0593 19.9323H49.8078L50.6001 21.1537L51.4007 19.9323L52.1053 19.9489L50.9346 21.6235ZM53.3719 19.9323H53.9203V20.4076H53.3719V22.6736C53.366 22.7219 53.3746 22.7709 53.3966 22.8143C53.4186 22.8576 53.453 22.8933 53.4953 22.9168C53.5665 22.946 53.6434 22.9583 53.7201 22.9527H53.8106C53.8481 22.9549 53.8856 22.9549 53.923 22.9527V23.4169C53.8548 23.4366 53.7851 23.4504 53.7146 23.4584C53.6373 23.4675 53.5595 23.4721 53.4816 23.4722C53.3801 23.4853 53.277 23.473 53.1814 23.4364C53.0857 23.3998 53.0005 23.3399 52.9333 23.2622C52.8284 23.0979 52.7775 22.9045 52.788 22.7095V20.4104H52.2533V19.9351H52.7194V18.9651H53.3034L53.3719 19.9323ZM56.5742 20.8553H58.6496V23.4031H58.2384L58.0849 22.7896C57.9226 22.985 57.7311 23.1538 57.5173 23.2898C57.1933 23.4614 56.8303 23.5443 56.4645 23.5302C55.9378 23.5397 55.4282 23.3414 55.0444 22.9776C54.5894 22.4605 54.3558 21.783 54.3946 21.0929C54.3579 20.401 54.5844 19.7211 55.0279 19.1917C55.223 18.971 55.4639 18.7961 55.7335 18.6796C56.003 18.5631 56.2948 18.5077 56.5879 18.5174C56.9816 18.507 57.3716 18.5953 57.7229 18.7744C57.9582 18.9077 58.1582 19.096 58.3061 19.3235C58.454 19.551 58.5455 19.8109 58.5729 20.0815H57.9395C57.9149 19.93 57.8608 19.7848 57.7803 19.6544C57.6999 19.524 57.5947 19.4109 57.4707 19.3216C57.2008 19.1548 56.8879 19.0721 56.5715 19.0839C56.3664 19.0813 56.1633 19.1243 55.9766 19.2098C55.7899 19.2953 55.6242 19.4212 55.4913 19.5786C55.1693 20.0001 55.013 20.5265 55.0526 21.057C55.0308 21.544 55.1571 22.026 55.4145 22.4387C55.5499 22.6219 55.7295 22.7671 55.9364 22.8605C56.1432 22.9538 56.3704 22.9922 56.5961 22.972C56.9761 22.9854 57.3468 22.8519 57.6325 22.599C57.7825 22.4379 57.8975 22.247 57.9702 22.0386C58.0429 21.8302 58.0717 21.6089 58.0547 21.3886H56.5742V20.8553ZM62.5017 21.0902C62.4694 20.8714 62.3908 20.6622 62.2714 20.4767C62.1411 20.282 61.9612 20.1264 61.7505 20.0263C61.532 19.9148 61.2907 19.8561 61.0458 19.8549C60.8243 19.8475 60.604 19.8907 60.4013 19.9811C60.1985 20.0715 60.0187 20.2069 59.8752 20.3772C59.5646 20.7581 59.4053 21.2416 59.4283 21.734C59.399 22.216 59.5584 22.6903 59.8724 23.0549C60.011 23.208 60.1807 23.3293 60.3699 23.4103C60.5592 23.4914 60.7635 23.5304 60.9691 23.5247C61.1267 23.5263 61.2841 23.5096 61.4379 23.475C61.6822 23.4221 61.9066 23.3004 62.0849 23.124C62.1955 23.0111 62.288 22.8815 62.3591 22.7399C62.4341 22.6085 62.4843 22.4642 62.5072 22.3143H61.9396C61.8986 22.4638 61.8256 22.6025 61.7258 22.7206C61.6357 22.8215 61.5246 22.9011 61.4004 22.9536C61.2762 23.0062 61.1421 23.0304 61.0075 23.0245C60.8721 23.0343 60.7363 23.0102 60.6124 22.9542C60.4885 22.8983 60.3803 22.8123 60.2974 22.704C60.1319 22.4518 60.0459 22.1551 60.0506 21.8529H62.5565C62.5438 21.591 62.5062 21.3309 62.4441 21.0763L62.5017 21.0902ZM60.0616 21.3914C60.06 21.1198 60.1576 20.8572 60.3358 20.6535C60.4204 20.5625 60.5234 20.4908 60.6379 20.4431C60.7523 20.3954 60.8755 20.373 60.9992 20.3772C61.1566 20.3637 61.3144 20.3961 61.4539 20.4706C61.5935 20.5451 61.7088 20.6585 61.7861 20.7972C61.8817 20.9864 61.9377 21.1933 61.9506 21.4052L60.0616 21.3914ZM65.9507 20.3689C66.0588 20.6234 66.1076 20.8994 66.0932 21.1758V23.4031H65.5038V21.2007C65.511 21.0254 65.4791 20.8507 65.4106 20.6895C65.3622 20.5861 65.2839 20.4999 65.1861 20.4422C65.0882 20.3845 64.9753 20.358 64.8622 20.3661C64.7484 20.3631 64.6348 20.3771 64.525 20.4076C64.3621 20.4562 64.2171 20.5524 64.1083 20.6839C64.0177 20.7857 63.9529 20.908 63.9191 21.0404C63.8848 21.2123 63.87 21.3875 63.8753 21.5627V23.381H63.22V19.9185H63.7683V20.4104C63.9063 20.2285 64.0823 20.0794 64.2838 19.9737C64.4741 19.8838 64.6822 19.8385 64.8924 19.8411C65.3914 19.8411 65.7231 20.0124 65.8931 20.3551L65.9507 20.3689ZM69.8274 21.0902C69.7951 20.8714 69.7166 20.6622 69.5971 20.4767C69.4662 20.2826 69.2864 20.1271 69.0762 20.0263C68.8568 19.9144 68.6146 19.8558 68.3688 19.8549C68.1477 19.8475 67.9277 19.8907 67.7255 19.9811C67.5232 20.0716 67.3439 20.207 67.2009 20.3772C66.8895 20.7578 66.7293 21.2412 66.7513 21.734C66.7219 22.216 66.8814 22.6903 67.1954 23.0549C67.3341 23.2079 67.5038 23.329 67.693 23.4101C67.8822 23.4911 68.0865 23.5302 68.2921 23.5247C68.4307 23.5194 68.5685 23.4999 68.7033 23.4667C68.9474 23.4133 69.1717 23.2916 69.3503 23.1157C69.461 23.0028 69.5535 22.8732 69.6245 22.7316C69.7001 22.6002 69.7513 22.456 69.7753 22.306H69.205C69.1661 22.4558 69.0939 22.5947 68.9939 22.7123C68.9036 22.8129 68.7925 22.8923 68.6683 22.9448C68.5442 22.9973 68.4101 23.0217 68.2756 23.0162C68.1397 23.0265 68.0035 23.0026 67.8791 22.9466C67.7547 22.8907 67.646 22.8044 67.5628 22.6957C67.3983 22.4432 67.3133 22.1466 67.3188 21.8446H69.8219C69.8282 21.5874 69.8108 21.3302 69.7698 21.0763L69.8274 21.0902ZM67.3846 21.3914C67.3829 21.1198 67.4805 20.8572 67.6587 20.6535C67.7434 20.5625 67.8464 20.4908 67.9608 20.4431C68.0753 20.3954 68.1985 20.373 68.3222 20.3772C68.4795 20.3637 68.6374 20.3961 68.7769 20.4706C68.9164 20.5451 69.0318 20.6585 69.1091 20.7972C69.2049 20.9861 69.26 21.1933 69.2708 21.4052L67.3846 21.3914ZM72.1715 19.8577L72.3031 19.8715V20.485C72.2712 20.4826 72.2391 20.4826 72.2072 20.485H72.1139C71.988 20.4758 71.8617 20.4959 71.7447 20.5438C71.6278 20.5918 71.5233 20.6662 71.4395 20.7613C71.2865 20.9434 71.2038 21.1749 71.2065 21.4135V23.4114H70.628V19.9185H71.1763V20.5181C71.2571 20.3551 71.3699 20.2103 71.508 20.0926C71.588 20.0123 71.683 19.9487 71.7874 19.9055C71.8919 19.8624 72.0038 19.8405 72.1167 19.8411L72.1715 19.8577ZM75.711 23.0079C75.6825 23.0119 75.6534 23.009 75.6262 22.9994C75.599 22.9898 75.5745 22.9738 75.5547 22.9527C75.5275 22.9089 75.5141 22.8578 75.5163 22.8062V20.8083C75.5259 20.6641 75.496 20.52 75.4297 20.3918C75.3635 20.2636 75.2635 20.1563 75.1407 20.0815C74.8402 19.9138 74.4997 19.8326 74.1565 19.8466C73.8315 19.8403 73.5117 19.9286 73.2353 20.1009C73.096 20.2017 72.9849 20.3372 72.9129 20.494C72.8408 20.6509 72.8102 20.8239 72.824 20.9962H73.3724C73.3795 20.8497 73.427 20.7081 73.5095 20.5872C73.5901 20.4989 73.6901 20.4306 73.8014 20.388C73.9128 20.3453 74.0325 20.3293 74.151 20.3413C74.3594 20.329 74.5672 20.3749 74.7514 20.4739C74.8223 20.5208 74.8793 20.5862 74.9165 20.663C74.9537 20.7398 74.9695 20.8254 74.9625 20.9105C74.9671 20.9871 74.954 21.0638 74.9241 21.1344C74.8978 21.1848 74.8585 21.2272 74.8102 21.2569C74.7619 21.2865 74.7065 21.3025 74.65 21.3029L73.726 21.419C73.4379 21.4452 73.1645 21.5589 72.9419 21.7451C72.8403 21.8399 72.7608 21.9563 72.7092 22.0857C72.6575 22.2152 72.6349 22.3546 72.6431 22.494C72.6399 22.6307 72.6653 22.7666 72.7178 22.8928C72.7702 23.019 72.8484 23.1326 72.9474 23.2263C73.0519 23.3248 73.1748 23.4015 73.3089 23.4518C73.4431 23.502 73.5858 23.525 73.7288 23.5192C73.9828 23.5215 74.2338 23.4628 74.4608 23.3478C74.6581 23.2528 74.8316 23.1139 74.968 22.9416C74.9793 23.0549 75.0129 23.1648 75.0667 23.2649C75.1143 23.336 75.1797 23.3931 75.2563 23.4305C75.3328 23.4678 75.4178 23.4841 75.5026 23.4777C75.5665 23.4829 75.6307 23.4829 75.6946 23.4777C75.764 23.4666 75.8327 23.4509 75.9002 23.4307V22.9997H75.796L75.711 23.0079ZM74.9379 22.1071C74.9456 22.2703 74.9035 22.432 74.8172 22.5704C74.7309 22.7088 74.6046 22.8171 74.4553 22.8808C74.273 22.9753 74.0709 23.0246 73.8659 23.0245C73.7082 23.0273 73.5544 22.9756 73.4299 22.8781C73.3704 22.831 73.3226 22.7705 73.2907 22.7013C73.2588 22.6322 73.2435 22.5564 73.2462 22.4801C73.241 22.3815 73.2641 22.2834 73.3127 22.1977C73.3613 22.1119 73.4334 22.0421 73.5204 21.9965C73.669 21.9232 73.8299 21.8782 73.9947 21.8639L74.3429 21.8169C74.4541 21.8046 74.5641 21.7833 74.6719 21.7534C74.7683 21.7294 74.8607 21.6912 74.9461 21.6401L74.9379 22.1071ZM77.1668 19.9323H77.7152V20.4076H77.1668V22.6736C77.1609 22.7219 77.1695 22.7709 77.1915 22.8143C77.2135 22.8576 77.2478 22.8933 77.2902 22.9168C77.3613 22.9462 77.4383 22.9585 77.515 22.9527H77.6055C77.6429 22.9548 77.6805 22.9548 77.7179 22.9527V23.4169C77.6497 23.4363 77.58 23.4502 77.5095 23.4584C77.4322 23.4674 77.3544 23.4721 77.2765 23.4722C77.175 23.4848 77.0721 23.4723 76.9765 23.4357C76.8809 23.3991 76.7957 23.3395 76.7282 23.2622C76.6242 23.0976 76.5743 22.9043 76.5856 22.7095V20.4104H76.1195V19.9351H76.5856V18.9651H77.1696L77.1668 19.9323ZM78.2964 19.9489H78.8831V23.4031H78.2964V19.9489ZM78.2964 18.6418H78.8831V19.3022H78.2964V18.6418ZM81.1367 19.8328C80.9147 19.8237 80.6935 19.8655 80.4898 19.955C80.286 20.0445 80.1051 20.1794 79.9606 20.3496C79.6559 20.7427 79.5012 21.233 79.5246 21.7313C79.4993 22.2008 79.6467 22.6633 79.9386 23.0301C80.0774 23.1905 80.2503 23.3173 80.4445 23.401C80.6386 23.4847 80.849 23.5233 81.06 23.5137C81.2969 23.5316 81.5346 23.4905 81.7521 23.3942C81.9696 23.2978 82.1603 23.149 82.3074 22.961C82.5867 22.5566 82.7282 22.0717 82.7105 21.5793C82.7271 21.3404 82.6953 21.1006 82.6171 20.8744C82.5388 20.6483 82.4158 20.4406 82.2554 20.2639C82.1013 20.1106 81.917 19.9918 81.7143 19.9151C81.5116 19.8385 81.2952 19.8057 81.0792 19.819L81.1367 19.8328ZM81.8934 22.5962C81.8234 22.7405 81.7113 22.8599 81.5722 22.9384C81.4331 23.0169 81.2735 23.0508 81.1148 23.0356C80.9675 23.0465 80.82 23.0179 80.6871 22.9529C80.5542 22.8879 80.4408 22.7887 80.3581 22.6653C80.1906 22.3878 80.1077 22.0669 80.1196 21.7423C80.1098 21.3987 80.1922 21.0589 80.3581 20.7586C80.4354 20.6264 80.5476 20.5184 80.6822 20.4467C80.8167 20.375 80.9684 20.3423 81.1203 20.3523C81.2889 20.3412 81.457 20.3807 81.6034 20.4658C81.7498 20.5509 81.8679 20.6777 81.9428 20.8304C82.054 21.0783 82.1065 21.3489 82.0963 21.6207C82.0827 21.9535 81.9936 22.2787 81.8359 22.5713L81.8934 22.5962ZM86.0855 20.3855C86.1936 20.6399 86.2423 20.916 86.228 21.1924V23.4197H85.6386V21.2007C85.6458 21.0254 85.6139 20.8507 85.5454 20.6895C85.497 20.5861 85.4187 20.4999 85.3209 20.4422C85.223 20.3845 85.1101 20.358 84.997 20.3661C84.8832 20.3631 84.7695 20.3771 84.6598 20.4076C84.4968 20.4562 84.3519 20.5524 84.2431 20.6839C84.1525 20.7857 84.0876 20.908 84.0539 21.0404C84.0209 21.2125 84.0062 21.3875 84.01 21.5627V23.381H83.4315V19.9185H83.9799V20.4104C84.1178 20.2285 84.2938 20.0794 84.4953 19.9737C84.6856 19.8838 84.8937 19.8385 85.1039 19.8411C85.5261 19.8411 85.8579 20.0124 86.0279 20.3551L86.0855 20.3855ZM87.8456 22.8532H90.6366V23.4197H87.1602V18.628H90.59V19.2111H87.7853V20.6563H90.3762V21.209H87.7853L87.8456 22.8532ZM94.6997 18.6584H95.3441V21.3333C95.3687 21.796 95.288 22.2582 95.1083 22.6846C94.8195 23.2594 94.2712 23.5468 93.4633 23.5468C92.6554 23.5468 92.1116 23.2594 91.832 22.6846C91.6551 22.2574 91.5755 21.7957 91.5989 21.3333V18.6584H92.2432V21.6014C92.2329 21.9009 92.3 22.198 92.4379 22.4636C92.5345 22.6343 92.6774 22.7738 92.8497 22.8658C93.022 22.9577 93.2168 22.9984 93.4112 22.9831C93.9595 22.9831 94.3314 22.7989 94.527 22.4304C94.6443 22.1706 94.6988 21.8865 94.6861 21.6014L94.6997 18.6584Z" fill="white"/>
</svg>
